<?xml version="1.0" standalone="no"?>
<!DOCTYPE svg PUBLIC "-//W3C//DTD SVG 20010904//EN"
 "http://www.w3.org/TR/2001/REC-SVG-20010904/DTD/svg10.dtd">
<svg version="1.0" xmlns="http://www.w3.org/2000/svg"
 width="228.000000pt" height="228.000000pt" viewBox="0 0 228.000000 228.000000"
 style="background-color: #ffffff"
 preserveAspectRatio="xMidYMid meet">
<metadata>
Created by potrace 1.10, written by Peter Selinger 2001-2011
</metadata>
<g transform="translate(0.000000,228.000000) scale(0.100000,-0.100000)"
fill="#0084ff" stroke="none">
<path d="M483 2150 c-18 -7 -23 -17 -23 -44 0 -25 -6 -38 -20 -46 -11 -6 -20
-19 -20 -30 0 -11 -9 -24 -20 -30 -11 -6 -20 -19 -20 -30 0 -11 -9 -24 -20
-30 -11 -6 -20 -20 -20 -31 0 -11 -11 -24 -26 -31 -21 -10 -25 -17 -20 -40 4
-21 0 -33 -14 -45 -11 -10 -20 -25 -20 -35 0 -9 -9 -22 -20 -28 -11 -6 -20
-20 -20 -31 0 -11 -11 -24 -25 -31 -16 -7 -25 -19 -25 -35 0 -14 -6 -23 -15
-23 -16 0 -19 -9 -15 -49 1 -15 -8 -32 -24 -45 -22 -18 -24 -26 -18 -56 l8
-35 879 -3 879 -2 23 27 c12 16 22 38 23 51 0 12 5 22 10 22 6 0 10 17 10 39
0 22 6 44 15 51 8 7 15 21 15 32 0 10 7 21 15 24 8 4 15 16 15 29 0 12 7 28
15 35 8 7 15 20 15 30 0 10 7 23 15 30 8 7 15 28 15 47 0 21 6 36 15 39 8 4
15 16 15 29 0 12 7 28 15 35 8 7 15 20 15 30 0 10 7 23 15 30 8 7 15 20 15 30
0 10 7 23 15 30 11 9 15 27 13 54 l-3 41 -830 2 c-479 1 -840 -2 -852 -7z"/>
<path d="M2200 2045 c-1 -5 -3 -15 -4 -21 0 -6 -9 -18 -18 -27 -9 -10 -15 -23
-12 -30 2 -7 -4 -21 -15 -31 -11 -10 -17 -23 -15 -30 3 -7 -2 -19 -11 -26 -8
-7 -15 -27 -15 -45 0 -18 -7 -38 -15 -45 -9 -7 -14 -19 -11 -27 3 -7 -4 -21
-15 -31 -11 -11 -17 -26 -13 -35 3 -10 -2 -20 -16 -27 -12 -6 -19 -18 -16 -25
2 -7 -4 -23 -14 -36 -13 -14 -18 -30 -14 -46 5 -17 0 -30 -14 -44 -12 -10 -19
-26 -16 -34 4 -8 -1 -17 -10 -21 -9 -3 -16 -17 -16 -30 0 -14 -7 -27 -15 -30
-13 -5 -15 -82 -15 -606 0 -566 1 -599 18 -596 9 2 19 14 20 28 2 13 11 29 19
36 9 6 13 16 9 22 -3 6 3 19 14 30 12 11 18 26 14 35 -3 10 2 20 16 27 17 9
21 18 17 40 -4 19 0 35 13 50 10 12 16 28 14 35 -3 7 4 19 16 25 12 7 19 18
16 26 -3 7 4 23 15 33 12 11 18 24 15 30 -4 5 3 19 15 30 16 14 20 27 15 45
-4 18 0 30 15 45 12 11 18 24 14 32 -5 7 0 18 11 26 18 13 19 37 22 603 2 353
-1 602 -7 622 -5 18 -10 29 -11 23z"/>
<path d="M25 1368 c-3 -7 -4 -303 -3 -658 l3 -645 916 -3 916 -2 7 37 c3 21 6
307 6 636 0 533 -2 600 -16 622 l-16 25 -904 0 c-715 0 -906 -3 -909 -12z
m295 -323 c0 -14 7 -28 15 -31 10 -4 15 -20 15 -45 0 -22 6 -41 14 -46 8 -4
16 -18 18 -31 4 -30 22 -33 26 -5 2 12 10 27 18 33 8 7 14 29 14 50 0 24 5 40
15 44 8 3 15 17 15 31 0 24 2 25 60 25 58 0 60 -1 60 -25 0 -14 7 -28 15 -31
10 -4 15 -20 15 -44 0 -21 6 -43 14 -50 8 -6 16 -21 18 -33 4 -30 22 -28 26 3
2 14 10 29 18 33 8 5 14 24 14 46 0 25 5 41 15 45 8 3 15 17 15 31 0 24 2 25
60 25 58 0 60 -1 60 -25 0 -14 7 -28 15 -31 10 -4 15 -20 15 -45 0 -22 6 -41
14 -46 8 -4 16 -18 18 -31 4 -30 22 -30 26 0 2 13 10 27 18 31 8 5 14 24 14
46 0 25 5 41 15 45 8 3 15 17 15 31 0 24 2 25 60 25 58 0 60 -1 60 -25 0 -14
7 -28 15 -31 10 -4 15 -20 15 -44 0 -21 6 -43 14 -50 8 -6 16 -20 18 -31 4
-27 22 -25 26 3 2 13 10 27 18 31 8 5 14 24 14 46 0 25 5 41 15 45 8 3 15 17
15 31 0 24 2 25 60 25 58 0 60 -1 60 -25 0 -14 7 -28 15 -31 10 -4 15 -20 15
-45 0 -22 6 -41 14 -46 8 -4 16 -18 18 -31 4 -30 22 -30 26 0 2 13 10 27 18
31 8 5 14 24 14 46 0 25 5 41 15 45 8 3 15 17 15 31 0 24 2 25 60 25 57 0 60
-1 60 -24 0 -13 7 -29 15 -36 8 -7 15 -28 15 -47 0 -21 6 -36 15 -39 8 -4 15
-17 15 -30 0 -14 7 -27 15 -30 22 -9 22 -329 0 -338 -8 -3 -15 -16 -15 -30 0
-13 -7 -26 -15 -30 -10 -3 -15 -19 -15 -45 0 -25 -5 -41 -15 -45 -8 -3 -15
-17 -15 -31 0 -24 -2 -25 -60 -25 -58 0 -60 1 -60 25 0 14 -7 28 -15 31 -10 4
-15 20 -15 44 0 21 -6 43 -14 50 -8 6 -16 21 -18 33 -2 12 -7 22 -13 22 -5 0
-11 -10 -13 -22 -2 -12 -10 -27 -18 -33 -8 -7 -14 -29 -14 -50 0 -24 -5 -40
-15 -44 -8 -3 -15 -17 -15 -31 0 -24 -2 -25 -60 -25 -57 0 -60 1 -60 24 0 13
-7 29 -15 36 -8 7 -15 27 -15 45 0 18 -6 38 -14 45 -8 6 -16 21 -18 33 -4 30
-22 28 -26 -3 -2 -14 -10 -29 -18 -33 -8 -5 -14 -24 -14 -46 0 -25 -5 -41 -15
-45 -8 -3 -15 -17 -15 -31 0 -24 -2 -25 -60 -25 -58 0 -60 1 -60 25 0 14 -7
28 -15 31 -10 4 -15 20 -15 44 0 21 -6 43 -14 50 -8 6 -16 20 -18 31 -4 29
-22 28 -26 -1 -2 -14 -10 -29 -18 -33 -8 -4 -14 -23 -14 -41 0 -19 -7 -39 -15
-46 -8 -7 -15 -23 -15 -36 0 -23 -3 -24 -60 -24 -57 0 -60 1 -60 24 0 13 -7
29 -15 36 -8 7 -15 28 -15 47 0 21 -6 36 -15 39 -9 4 -15 19 -15 35 0 26 4 29
30 29 25 0 30 -4 30 -25 0 -13 6 -28 14 -32 8 -4 16 -19 18 -33 2 -19 9 -25
28 -25 19 0 26 6 28 25 2 14 10 29 18 33 8 4 14 19 14 31 0 13 7 26 15 30 8 3
15 16 15 30 0 13 7 26 15 30 12 4 15 25 15 100 0 86 -2 96 -21 106 -11 7 -18
18 -15 25 2 7 -2 19 -10 25 -8 7 -14 23 -14 36 0 13 -6 27 -14 31 -8 4 -16 19
-18 33 -2 19 -9 25 -28 25 -19 0 -26 -6 -28 -25 -2 -14 -10 -29 -18 -33 -8 -4
-14 -19 -14 -31 0 -13 -7 -26 -15 -30 -8 -3 -15 -16 -15 -30 0 -13 -7 -26 -15
-30 -12 -4 -15 -29 -15 -135 0 -105 -3 -130 -15 -135 -8 -3 -15 -14 -15 -24 0
-11 -7 -25 -15 -32 -8 -7 -15 -29 -15 -50 0 -24 -5 -40 -15 -44 -8 -3 -15 -17
-15 -31 0 -24 -2 -25 -60 -25 -58 0 -60 1 -60 25 0 14 -7 28 -15 31 -10 4 -15
20 -15 44 0 21 -6 43 -14 50 -8 6 -16 21 -18 33 -4 30 -22 28 -26 -3 -2 -14
-10 -29 -18 -33 -8 -5 -14 -24 -14 -46 0 -25 -5 -41 -15 -45 -8 -3 -15 -17
-15 -31 0 -24 -2 -25 -60 -25 -58 0 -60 1 -60 25 0 14 -7 28 -15 31 -10 4 -15
20 -15 45 0 26 -5 42 -15 45 -8 4 -15 17 -15 30 0 14 -7 27 -15 30 -22 9 -22
329 0 338 8 3 15 16 15 30 0 13 7 26 15 30 10 3 15 19 15 45 0 25 5 41 15 45
8 3 15 17 15 31 0 24 2 25 60 25 58 0 60 -1 60 -25z"/>
<path d="M237 974 c-4 -4 -7 -17 -7 -30 0 -12 -7 -24 -15 -28 -8 -3 -15 -16
-15 -30 0 -13 -7 -26 -15 -30 -8 -3 -15 -16 -15 -30 0 -13 -7 -26 -15 -30 -22
-8 -22 -194 0 -202 8 -4 15 -17 15 -30 0 -14 7 -27 15 -30 8 -4 15 -17 15 -30
0 -12 6 -27 14 -31 8 -4 16 -19 18 -33 5 -36 51 -36 56 0 2 14 10 29 18 33 8
4 14 19 14 31 0 13 7 26 15 30 8 3 15 16 15 30 0 13 7 26 15 30 22 8 22 194 0
202 -8 4 -15 17 -15 30 0 14 -7 27 -15 30 -8 4 -15 17 -15 30 0 12 -6 27 -14
31 -8 4 -16 19 -18 33 -3 25 -35 39 -51 24z"/>
<path d="M507 974 c-4 -4 -7 -17 -7 -30 0 -12 -7 -24 -15 -28 -8 -3 -15 -16
-15 -30 0 -13 -7 -26 -15 -30 -8 -3 -15 -16 -15 -30 0 -13 -7 -26 -15 -30 -12
-4 -15 -25 -15 -99 0 -72 4 -98 15 -107 8 -7 15 -20 15 -30 0 -10 7 -23 15
-30 8 -7 15 -20 15 -30 0 -10 6 -23 14 -30 8 -6 16 -21 18 -33 2 -16 10 -22
28 -22 18 0 26 6 28 22 2 12 10 27 18 33 8 7 14 23 14 35 0 13 7 25 15 29 8 3
15 16 15 30 0 13 7 26 15 30 12 4 15 25 15 101 0 76 -3 97 -15 101 -8 4 -15
17 -15 30 0 14 -7 27 -15 30 -8 4 -15 17 -15 30 0 12 -6 27 -14 31 -8 4 -16
19 -18 33 -3 25 -35 39 -51 24z"/>
<path d="M1047 974 c-4 -4 -7 -17 -7 -30 0 -12 -7 -24 -15 -28 -8 -3 -15 -16
-15 -30 0 -13 -7 -26 -15 -30 -8 -3 -15 -16 -15 -30 0 -13 -7 -26 -15 -30 -22
-8 -22 -188 0 -206 8 -7 15 -20 15 -30 0 -10 7 -23 15 -30 8 -7 15 -20 15 -30
0 -10 6 -23 14 -30 8 -6 16 -21 18 -33 5 -33 52 -31 56 3 2 14 10 29 18 33 8
4 14 16 14 26 0 10 7 24 15 31 8 7 15 20 15 30 0 10 7 23 15 30 11 9 15 35 15
107 0 74 -3 95 -15 99 -8 4 -15 17 -15 30 0 14 -7 27 -15 30 -8 4 -15 17 -15
30 0 12 -6 27 -14 31 -8 4 -16 19 -18 33 -3 25 -35 39 -51 24z"/>
<path d="M1317 974 c-4 -4 -7 -17 -7 -30 0 -12 -7 -24 -15 -28 -8 -3 -15 -16
-15 -30 0 -13 -7 -26 -15 -30 -8 -3 -15 -14 -15 -24 0 -11 -7 -25 -15 -32 -11
-9 -15 -35 -15 -107 0 -74 3 -95 15 -99 8 -4 15 -17 15 -30 0 -14 7 -27 15
-30 8 -4 15 -17 15 -30 0 -12 6 -27 14 -31 8 -4 16 -19 18 -33 2 -19 9 -25 28
-25 19 0 26 6 28 25 2 14 10 29 18 33 8 4 14 19 14 31 0 13 7 26 15 30 8 3 15
16 15 30 0 13 7 26 15 30 12 4 15 25 15 99 0 72 -4 98 -15 107 -8 7 -15 20
-15 30 0 10 -7 23 -15 30 -8 7 -15 21 -15 31 0 10 -6 22 -14 26 -8 4 -16 19
-18 33 -3 25 -35 39 -51 24z"/>
<path d="M1587 974 c-4 -4 -7 -17 -7 -30 0 -12 -7 -24 -15 -28 -8 -3 -15 -16
-15 -30 0 -13 -7 -26 -15 -30 -8 -3 -15 -16 -15 -30 0 -13 -7 -26 -15 -30 -12
-4 -15 -25 -15 -99 0 -72 4 -98 15 -107 8 -7 15 -20 15 -30 0 -10 7 -23 15
-30 8 -7 15 -21 15 -31 0 -10 6 -22 14 -26 8 -4 16 -19 18 -33 2 -19 9 -25 28
-25 19 0 26 6 28 25 2 14 10 29 18 33 8 4 14 16 14 26 0 10 7 24 15 31 8 7 15
23 15 35 0 13 7 25 15 29 12 4 15 25 15 101 0 76 -3 97 -15 101 -8 4 -15 17
-15 30 0 14 -7 27 -15 30 -8 4 -15 17 -15 30 0 12 -6 27 -14 31 -8 4 -16 19
-18 33 -3 25 -35 39 -51 24z"/>
</g>
</svg>
