<?xml version="1.0" standalone="no"?>
<!DOCTYPE svg PUBLIC "-//W3C//DTD SVG 20010904//EN"
 "http://www.w3.org/TR/2001/REC-SVG-20010904/DTD/svg10.dtd">
<svg version="1.0" xmlns="http://www.w3.org/2000/svg"
 width="114.000000pt" height="51.000000pt" viewBox="0 0 114.000000 51.000000"
 preserveAspectRatio="xMidYMid meet">
<metadata>
Created by potrace 1.10, written by Peter Selinger 2001-2011
</metadata>
<g transform="translate(0.000000,51.000000) scale(0.100000,-0.100000)"
fill="#0084ff" stroke="none">
<path d="M197 437 c-23 -16 -47 -34 -52 -40 -13 -15 -43 -34 -72 -47 -13 -5
-23 -14 -23 -20 0 -6 -7 -18 -15 -27 -13 -12 -15 -39 -13 -146 l3 -132 430 -3
c237 -2 446 0 465 4 27 4 52 24 108 82 l72 76 0 126 c0 69 -4 131 -9 139 -8
12 -77 15 -430 15 l-421 1 -43 -28z m847 -45 c-15 -21 -40 -50 -56 -66 -26
-28 -28 -36 -28 -110 0 -92 -16 -164 -32 -148 -10 10 -13 43 -16 159 l-2 52
-410 3 c-280 2 -412 6 -420 14 -25 25 102 34 477 34 l374 0 24 26 c35 38 98
83 108 77 4 -3 -4 -21 -19 -41z m-546 1 c2 -8 -6 -13 -22 -13 -25 0 -33 10
-19 24 10 10 36 3 41 -11z m148 6 c7 -11 -12 -29 -31 -29 -19 0 -38 18 -31 29
4 6 18 11 31 11 13 0 27 -5 31 -11z m134 -10 c0 -5 -16 -9 -35 -9 -34 0 -48
14 -23 22 18 6 58 -3 58 -13z m134 0 c-7 -12 -64 -12 -64 0 0 5 5 11 12 13 19
7 58 -3 52 -13z m-539 1 c-3 -5 -15 -10 -26 -10 -10 0 -19 5 -19 10 0 6 12 10
26 10 14 0 23 -4 19 -10z m-56 -170 c17 -25 27 -25 34 0 4 15 14 20 42 20 28
0 38 -5 42 -20 7 -25 9 -25 45 5 16 14 38 25 48 25 10 0 32 -11 48 -25 36 -30
38 -30 45 -5 4 15 14 20 42 20 28 0 38 -5 42 -20 7 -26 11 -25 40 6 40 44 89
24 129 -51 8 -16 5 -28 -20 -62 -36 -49 -73 -56 -105 -21 l-21 21 -25 -27
c-21 -22 -31 -27 -53 -21 -15 4 -31 13 -35 21 -10 18 -41 18 -57 -1 -16 -20
-35 -19 -72 3 -28 16 -30 16 -42 0 -7 -9 -24 -20 -39 -23 -21 -6 -31 -1 -51
20 l-25 26 -20 -20 c-25 -25 -63 -27 -81 -6 -16 20 -27 19 -57 -5 -36 -28 -56
-25 -92 12 -34 34 -40 68 -16 88 8 7 15 21 15 31 0 13 10 20 36 25 31 6 40 3
54 -16 l17 -23 20 20 c11 11 27 23 34 26 23 10 63 -3 78 -23z"/>
<path d="M100 180 l-25 -19 24 -25 c26 -28 30 -30 47 -18 21 13 25 49 9 66
-21 20 -24 20 -55 -4z"/>
<path d="M366 184 c-21 -20 -20 -27 3 -55 16 -20 23 -22 38 -13 10 6 19 24 21
39 5 42 -32 60 -62 29z"/>
<path d="M514 192 c-27 -20 -35 -41 -24 -61 14 -27 56 -28 70 -1 16 30 -21 80
-46 62z"/>
<path d="M624 185 c-9 -22 4 -62 22 -69 24 -9 54 12 54 39 0 38 -64 63 -76 30z"/>
<path d="M765 173 c-21 -31 -11 -63 20 -63 28 0 44 23 37 55 -6 34 -38 38 -57
8z"/>
<path d="M237 183 c-4 -3 -7 -21 -7 -40 0 -28 3 -33 24 -33 24 0 56 23 56 39
0 24 -57 51 -73 34z"/>
</g>
</svg>
