<?xml version="1.0" standalone="no"?>
<!DOCTYPE svg PUBLIC "-//W3C//DTD SVG 20010904//EN"
 "http://www.w3.org/TR/2001/REC-SVG-20010904/DTD/svg10.dtd">
<svg version="1.0" xmlns="http://www.w3.org/2000/svg"
 width="216.000000pt" height="126.000000pt" viewBox="0 0 216.000000 126.000000"
 preserveAspectRatio="xMidYMid meet">
<metadata>
Created by potrace 1.10, written by Peter Selinger 2001-2011
</metadata>
<g transform="translate(0.000000,126.000000) scale(0.100000,-0.100000)"
fill="#0084ff" stroke="none">
<path d="M913 1248 c1 -6 -11 -16 -28 -21 -54 -17 -97 -42 -115 -65 -18 -23
-24 -23 -185 -25 -147 -2 -168 -4 -176 -20 -7 -12 -17 -15 -33 -11 -14 3 -29
-1 -39 -10 -8 -9 -20 -16 -25 -16 -5 0 -31 -23 -59 -50 -64 -63 -96 -122 -88
-160 5 -22 1 -32 -21 -49 -15 -11 -34 -21 -42 -21 -9 0 -35 -20 -59 -46 l-43
-45 0 -120 c0 -116 1 -121 28 -155 15 -18 32 -34 38 -34 14 0 44 -33 44 -49 0
-17 70 -121 81 -121 5 0 29 -16 55 -35 25 -19 52 -35 60 -35 8 0 26 -7 39 -16
15 -10 36 -14 53 -11 17 3 33 0 44 -10 23 -21 125 -19 148 2 24 22 35 19 72
-17 52 -52 132 -88 194 -88 30 0 54 -4 54 -10 0 -14 577 -14 585 0 3 6 19 10
36 10 16 0 29 4 29 9 0 5 10 13 23 17 12 4 25 11 28 15 3 5 52 11 110 13 97 3
109 5 176 40 69 36 103 66 151 134 19 27 22 44 22 121 0 82 2 90 21 96 11 4
24 18 29 31 5 13 16 24 25 24 12 0 15 16 15 94 0 85 -2 94 -20 99 -11 3 -20
14 -20 24 0 23 -35 58 -68 68 -21 6 -22 10 -16 69 6 58 4 64 -27 111 -18 28
-40 57 -48 65 -27 26 -87 60 -107 60 -11 0 -28 7 -39 16 -15 11 -44 15 -117
13 -70 -1 -101 2 -112 12 -35 32 -46 39 -58 39 -8 0 -23 7 -35 15 -11 8 -39
17 -62 21 -25 4 -41 12 -41 20 0 12 -43 14 -240 14 -179 0 -239 -3 -237 -12z
m458 -42 c14 -7 39 -16 55 -20 28 -6 94 -36 104 -46 3 -3 19 -15 37 -27 28
-20 45 -23 132 -23 55 0 102 -4 106 -9 3 -5 20 -13 37 -16 43 -10 115 -64 122
-92 4 -13 11 -23 16 -23 15 0 13 -117 -2 -122 -21 -7 -1 -34 38 -53 121 -57
147 -190 54 -274 l-42 -38 -2 -85 c-1 -80 -3 -87 -36 -130 -19 -26 -48 -54
-65 -64 -16 -10 -32 -20 -35 -23 -16 -19 -89 -35 -180 -40 -94 -5 -109 -9
-141 -33 -83 -64 -103 -68 -370 -68 -221 -1 -249 1 -303 19 -33 12 -67 21 -78
21 -10 0 -18 4 -18 9 0 5 -14 12 -30 16 -17 4 -50 27 -75 51 -43 44 -46 45
-90 38 -25 -3 -48 -10 -51 -15 -7 -12 -71 -12 -78 0 -3 5 -31 12 -61 16 -31 3
-80 20 -112 37 -70 37 -153 121 -153 153 0 36 -10 55 -31 55 -10 0 -36 18 -59
40 l-40 39 0 84 c0 86 11 115 60 154 16 13 82 46 113 56 13 5 17 18 17 56 0
99 64 169 204 225 29 12 77 16 193 16 l154 0 24 28 c25 29 103 72 175 95 8 3
98 6 200 6 136 1 192 -3 211 -13z"/>
</g>
</svg>
