<?xml version="1.0" standalone="no"?>
<!DOCTYPE svg PUBLIC "-//W3C//DTD SVG 20010904//EN"
 "http://www.w3.org/TR/2001/REC-SVG-20010904/DTD/svg10.dtd">
<svg version="1.0" xmlns="http://www.w3.org/2000/svg"
 width="198.000000pt" height="198.000000pt" viewBox="0 0 198.000000 198.000000"
 style="background-color: #ffffff"
 preserveAspectRatio="xMidYMid meet">
<metadata>
Created by potrace 1.10, written by Peter Selinger 2001-2011
</metadata>
<g transform="translate(0.000000,198.000000) scale(0.100000,-0.100000)"
fill="#0084ff" stroke="none">
<path d="M425 1878 c-33 -17 -80 -40 -105 -53 -29 -14 -44 -27 -42 -38 1 -9
-7 -18 -20 -22 -13 -3 -36 -13 -53 -20 -16 -8 -38 -16 -47 -19 -10 -3 -18 -10
-18 -16 0 -7 218 -10 674 -10 586 0 675 2 686 15 7 8 21 15 31 15 10 0 21 4
24 10 3 5 20 13 38 18 22 6 33 16 37 33 4 18 14 25 35 27 17 2 34 10 38 18 4
8 16 14 26 14 9 0 26 7 37 15 10 8 29 15 42 15 13 0 22 6 22 15 0 13 -81 15
-672 14 l-673 -1 -60 -30z"/>
<path d="M1888 1886 c-20 -6 -43 -17 -50 -24 -6 -6 -20 -12 -29 -12 -9 0 -22
-6 -29 -14 -6 -8 -23 -16 -38 -18 -18 -2 -28 -10 -32 -28 -4 -18 -14 -26 -32
-28 -15 -2 -32 -10 -38 -18 -7 -8 -20 -14 -29 -14 -9 0 -25 -7 -35 -15 -11 -8
-27 -15 -36 -15 -9 0 -26 -10 -38 -23 l-22 -23 2 -800 c3 -913 -8 -828 101
-776 34 16 70 32 80 36 9 3 17 15 17 26 0 11 8 23 18 27 9 3 45 18 80 34 34
16 66 29 71 29 6 0 26 9 45 21 l36 21 0 814 c0 448 -1 814 -2 813 -2 -1 -20
-6 -40 -13z m-138 -426 c0 -11 7 -23 15 -26 8 -3 24 -22 36 -41 20 -32 22 -49
22 -167 -1 -118 -3 -135 -23 -169 -25 -43 -53 -58 -93 -50 -58 11 -84 121 -71
298 6 75 10 88 35 112 16 16 29 36 29 46 0 11 8 17 25 17 18 0 25 -5 25 -20z
m18 -619 c12 -11 22 -29 22 -42 0 -12 7 -30 16 -40 13 -14 16 -40 14 -136 -2
-156 -3 -170 -17 -185 -7 -6 -13 -18 -13 -25 0 -17 -33 -33 -68 -33 -53 0 -78
43 -86 148 -9 109 1 227 20 243 8 6 14 20 14 31 0 22 37 57 60 57 8 0 25 -8
38 -18z"/>
<path d="M1694 1389 l-29 -30 1 -138 c1 -119 3 -140 20 -159 20 -23 74 -31 74
-10 0 6 7 19 16 29 13 14 16 43 16 147 l1 130 -32 31 c-17 17 -33 31 -34 31
-2 0 -16 -14 -33 -31z"/>
<path d="M1710 803 c0 -9 -10 -27 -22 -41 -22 -22 -23 -32 -22 -161 1 -119 3
-142 20 -164 26 -37 65 -33 77 8 5 17 14 39 20 50 5 10 10 68 9 128 0 96 -2
111 -21 131 -12 12 -21 32 -21 44 0 15 -6 22 -20 22 -12 0 -20 -7 -20 -17z"/>
<path d="M57 1663 c-4 -3 -7 -368 -7 -810 l0 -803 26 0 c14 0 32 7 40 15 9 8
24 15 33 15 10 0 24 7 31 15 7 8 23 15 36 15 19 0 24 5 24 25 0 20 6 27 30 31
16 4 35 13 41 20 6 8 18 14 26 14 13 0 48 15 93 41 16 10 32 16 55 24 11 3 15
19 15 60 l0 55 -114 0 c-63 0 -121 3 -130 6 -9 3 -25 21 -37 40 -18 30 -21 51
-22 173 -1 119 1 142 16 159 9 10 17 30 17 44 0 45 35 58 160 58 l110 0 0 63
c0 35 -5 68 -12 75 -8 8 -34 10 -83 5 -93 -7 -164 3 -172 25 -3 9 -12 24 -18
32 -13 15 -20 134 -17 256 2 55 5 64 37 97 19 20 35 43 35 51 0 13 20 16 113
18 l112 3 3 93 3 92 -219 0 c-120 0 -222 -3 -225 -7z"/>
<path d="M532 1578 l3 -93 443 -3 c274 -1 450 2 461 8 16 8 18 21 16 83 -1 40
-5 79 -9 85 -5 9 -122 12 -462 12 l-455 0 3 -92z"/>
<path d="M285 1420 c-4 -6 207 -10 569 -10 382 0 576 3 576 10 0 14 -1137 13
-1145 0z"/>
<path d="M232 1365 c-3 -5 -5 -69 -5 -141 1 -148 12 -178 68 -189 53 -10 1143
-1 1152 10 5 6 7 49 5 96 l-3 87 -32 -8 c-18 -4 -42 -12 -54 -18 -12 -7 -31
-12 -42 -12 -11 0 -35 -6 -53 -14 -18 -7 -46 -18 -63 -23 -20 -6 -29 -15 -27
-25 2 -12 -7 -19 -32 -23 -59 -12 -70 -5 -76 45 l-5 45 -345 5 c-190 3 -351 9
-357 13 -11 7 -18 33 -10 39 1 1 162 5 357 8 l355 5 5 35 c6 42 31 49 94 27
22 -7 68 -22 101 -31 33 -10 74 -22 90 -28 73 -24 95 -27 97 -9 7 78 3 102
-17 106 -42 10 -1197 10 -1203 0z"/>
<path d="M539 993 c-6 -6 -9 -38 -7 -70 l3 -58 449 -3 c313 -1 453 1 462 9 17
14 12 95 -7 115 -13 13 -77 15 -453 17 -323 1 -440 -1 -447 -10z"/>
<path d="M274 815 c-4 -8 -4 -22 0 -30 5 -13 79 -15 584 -15 503 0 581 2 592
15 10 12 10 18 0 30 -11 13 -89 15 -592 15 -505 0 -579 -2 -584 -15z"/>
<path d="M237 753 c-2 -5 -7 -39 -11 -78 -8 -83 8 -206 30 -240 l16 -25 578 0
c318 0 584 2 592 5 11 4 13 37 13 153 -1 81 -4 153 -9 160 -5 9 -139 12 -587
12 -369 0 -587 4 -599 10 -10 6 -21 7 -23 3z m441 -55 c6 -7 12 -26 14 -43 l3
-30 353 -3 353 -2 -3 -28 -3 -27 -350 -5 -350 -5 -9 -52 c-6 -34 -14 -53 -22
-53 -8 0 -14 9 -14 20 0 13 -9 22 -27 26 -16 3 -48 12 -73 19 -25 8 -72 21
-105 31 -90 25 -105 32 -105 49 0 8 12 17 28 21 15 3 45 11 67 18 22 8 67 21
100 31 33 10 74 23 90 31 38 16 41 16 53 2z"/>
<path d="M530 331 c0 -28 5 -53 12 -57 7 -4 208 -7 448 -5 426 2 435 2 453 23
20 23 22 59 5 76 -9 9 -126 12 -465 12 l-453 0 0 -49z"/>
<path d="M495 233 c-11 -3 -29 -12 -40 -19 -11 -8 -27 -14 -36 -14 -9 0 -22
-7 -29 -15 -7 -8 -25 -15 -41 -15 -24 0 -29 -4 -29 -25 0 -16 -7 -28 -17 -31
-22 -6 -79 -31 -115 -50 -14 -8 -34 -14 -43 -14 -9 0 -15 -6 -13 -12 6 -16
1294 -24 1313 -8 8 6 11 41 10 101 -1 82 -3 93 -20 100 -22 8 -907 10 -940 2z"/>
</g>
</svg>
