<?xml version="1.0" standalone="no"?>
<!DOCTYPE svg PUBLIC "-//W3C//DTD SVG 20010904//EN"
 "http://www.w3.org/TR/2001/REC-SVG-20010904/DTD/svg10.dtd">
<svg version="1.0" xmlns="http://www.w3.org/2000/svg"
 width="132.000000pt" height="132.000000pt" viewBox="0 0 132.000000 132.000000"
 style="background-color: #0084ff"
 preserveAspectRatio="xMidYMid meet">
<metadata>
Created by potrace 1.10, written by Peter Selinger 2001-2011
</metadata>
<g transform="translate(0.000000,132.000000) scale(0.100000,-0.100000)"
fill="#ffffff" stroke="none">
<path d="M294 1265 c-10 -8 -27 -15 -37 -15 -9 0 -43 -13 -74 -30 -31 -16 -64
-30 -75 -30 -10 0 -21 -7 -24 -15 -3 -8 -14 -17 -25 -20 -10 -4 -19 -10 -19
-15 0 -16 31 -20 53 -6 44 28 171 38 522 41 337 3 369 6 430 35 39 19 108 40
132 40 30 0 26 -20 -6 -36 -13 -7 -28 -17 -34 -23 -6 -6 -21 -11 -33 -11 -12
0 -27 -7 -34 -15 -7 -8 -21 -15 -31 -15 -13 0 -19 -7 -19 -23 0 -13 -5 -28
-11 -34 -7 -7 -9 -106 -8 -299 1 -159 2 -305 2 -324 -1 -194 -6 -316 -14 -369
-5 -35 -8 -66 -5 -68 5 -5 72 14 96 28 42 24 88 44 115 49 24 4 30 10 30 30 0
17 7 26 25 30 l25 6 2 547 c1 329 -1 549 -7 552 -5 3 -21 -2 -34 -11 -23 -15
-27 -15 -41 0 -15 14 -66 16 -449 16 -364 0 -435 -2 -452 -15z m837 -150 c39
-14 45 -14 55 -1 16 23 24 8 24 -47 0 -43 -2 -48 -17 -41 -10 5 -44 9 -76 9
-40 0 -61 5 -67 15 -17 26 -11 56 13 68 12 6 23 11 23 11 1 1 21 -6 45 -14z
m-61 -112 c0 -22 -17 -49 -25 -41 -8 8 5 58 16 58 5 0 9 -8 9 -17z m104 -13
c14 -5 26 -16 26 -24 0 -8 6 -16 13 -18 8 -3 12 -36 12 -115 0 -105 -1 -111
-29 -147 -15 -21 -34 -40 -42 -43 -8 -3 -31 12 -54 35 l-40 40 0 107 c0 93 3
110 21 133 31 40 53 47 93 32z m-84 -367 c0 -7 -9 -27 -19 -44 -18 -29 -19
-30 -26 -10 -3 11 -3 36 0 55 6 31 9 34 26 23 10 -6 19 -17 19 -24z m126 -101
c13 -28 16 -55 12 -130 -3 -52 -10 -97 -15 -101 -5 -3 -12 -13 -15 -21 -8 -23
-60 -48 -65 -32 -3 6 -10 12 -17 12 -7 0 -22 13 -34 30 -19 26 -22 42 -22 134
0 97 2 107 24 130 13 15 28 26 34 26 5 0 13 7 16 15 5 14 10 13 35 -6 17 -12
38 -38 47 -57z m-133 -308 c1 -20 -3 -29 -13 -29 -18 0 -35 46 -26 71 6 16 8
16 22 3 8 -9 16 -29 17 -45z"/>
<path d="M1124 894 c-8 -57 1 -163 15 -177 8 -8 15 -5 26 9 19 25 20 171 1
197 -22 28 -34 20 -42 -29z"/>
<path d="M1134 516 c-10 -25 -10 -188 -1 -211 8 -20 9 -19 28 4 28 35 28 180
-1 206 -18 16 -20 16 -26 1z"/>
<path d="M40 1104 c-13 -4 -15 -72 -15 -539 0 -294 3 -535 6 -535 13 0 68 31
79 45 7 8 18 15 25 15 7 0 18 7 25 15 7 8 25 15 41 15 26 0 29 3 23 24 -5 21
-1 25 27 31 18 4 39 14 47 21 24 25 4 35 -56 29 -53 -6 -60 -4 -99 24 -41 29
-43 34 -43 80 0 28 -5 53 -10 56 -7 4 -7 12 0 25 5 10 10 43 10 72 0 60 2 64
49 97 28 20 41 23 83 18 58 -7 78 -1 78 24 0 21 -7 22 -90 20 -47 -2 -60 2
-87 25 -30 25 -33 32 -33 86 0 33 -5 68 -10 78 -7 13 -7 21 0 25 5 3 10 25 10
49 0 67 46 101 139 101 l55 0 8 39 c6 29 5 42 -4 48 -7 4 -56 8 -108 8 -52 0
-104 2 -115 4 -11 2 -27 2 -35 0z m200 -54 c0 -5 -7 -10 -15 -10 -8 0 -15 5
-15 10 0 6 7 10 15 10 8 0 15 -4 15 -10z m-106 -19 c6 -9 -43 -35 -52 -27 -2
3 -2 12 1 21 7 16 42 21 51 6z m-27 -383 c28 -27 29 -39 2 -56 -26 -16 -27
-16 -35 36 -7 47 -1 52 33 20z m11 -428 c18 -23 30 -30 57 -30 37 0 44 -10 20
-30 -12 -10 -20 -9 -40 4 -32 21 -32 21 -50 -14 -9 -17 -19 -29 -23 -26 -4 2
-9 32 -10 65 -4 71 10 80 46 31z"/>
<path d="M355 1090 c-2 -3 -1 -25 2 -50 l5 -45 289 0 289 0 0 50 0 50 -291 0
c-160 0 -292 -2 -294 -5z m278 -37 c-34 -2 -93 -2 -130 0 -37 2 -10 3 62 3 72
0 102 -1 68 -3z m215 0 c-10 -2 -28 -2 -40 0 -13 2 -5 4 17 4 22 1 32 -1 23
-4z"/>
<path d="M426 943 c-163 -2 -254 -7 -263 -14 -9 -8 -13 -39 -13 -105 0 -85 2
-94 21 -105 31 -16 753 -28 769 -12 3 2 5 29 5 59 1 39 -3 54 -13 54 -8 0 -12
-9 -10 -22 3 -19 -4 -23 -57 -34 -33 -7 -80 -17 -105 -24 -41 -10 -45 -9 -61
11 -16 21 -19 21 -253 17 l-238 -4 6 28 c3 15 1 30 -4 33 -6 3 -10 16 -10 27
0 20 3 21 248 17 l247 -4 3 23 c4 27 27 39 45 24 17 -14 178 -54 193 -48 8 3
12 19 11 43 l-3 38 -134 0 c-74 1 -247 0 -384 -2z"/>
<path d="M353 633 c-13 -33 1 -35 295 -37 275 -1 293 0 298 17 3 10 3 21 -1
25 -3 4 -137 7 -297 7 -219 0 -292 -3 -295 -12z"/>
<path d="M307 534 c-2 -2 -30 -4 -63 -5 -92 -3 -94 -4 -94 -113 0 -142 -34
-132 414 -128 204 2 375 7 379 11 4 4 5 19 2 32 l-6 24 -244 0 c-230 0 -244
-1 -249 -19 -5 -20 -28 -19 -111 3 -22 5 -57 13 -77 16 -40 6 -75 32 -61 46 8
8 58 22 142 40 54 11 61 17 37 31 -25 14 -4 28 42 28 33 0 33 0 30 -42 l-3
-42 250 3 c138 2 251 4 252 4 1 1 -2 25 -5 54 l-7 52 -312 4 c-172 2 -314 2
-316 1z m-77 -64 c-12 -22 -40 -27 -40 -7 0 19 10 27 32 27 16 0 17 -3 8 -20z
m657 14 c-11 -11 -313 -15 -339 -5 -16 7 36 10 161 10 101 1 181 -2 178 -5z"/>
<path d="M357 228 c-8 -5 -9 -10 -1 -18 14 -14 583 -9 587 5 2 12 -568 24
-586 13z"/>
<path d="M919 116 c-3 -3 -144 -6 -313 -7 l-309 -2 -56 -28 c-31 -16 -64 -29
-73 -29 -24 0 -49 -11 -44 -19 3 -4 190 -6 418 -4 l413 2 -3 33 c-3 32 -23 64
-33 54z"/>
</g>
</svg>
