<?xml version="1.0" standalone="no"?>
<!DOCTYPE svg PUBLIC "-//W3C//DTD SVG 20010904//EN"
 "http://www.w3.org/TR/2001/REC-SVG-20010904/DTD/svg10.dtd">
<svg version="1.0" xmlns="http://www.w3.org/2000/svg"
 width="201.000000pt" height="201.000000pt" viewBox="0 0 201.000000 201.000000"
 style="background-color: #ffffff"
 preserveAspectRatio="xMidYMid meet">
<metadata>
Created by potrace 1.10, written by Peter Selinger 2001-2011
</metadata>
<g transform="translate(0.000000,201.000000) scale(0.100000,-0.100000)"
fill="#0084ff" stroke="none">
<path d="M743 1933 c-24 -3 -33 -9 -33 -23 0 -15 -11 -19 -62 -24 -94 -10
-264 -52 -338 -84 -60 -26 -65 -29 -62 -45 1 -8 -10 -20 -25 -26 -72 -30 -143
-92 -143 -127 0 -12 -7 -27 -15 -34 -10 -9 -15 -31 -15 -73 0 -66 18 -105 69
-147 17 -14 31 -33 31 -43 0 -9 11 -22 25 -27 14 -5 25 -14 25 -20 0 -5 8 -10
18 -10 9 0 26 -7 36 -15 11 -8 30 -15 42 -15 12 0 27 -7 34 -15 7 -8 22 -15
34 -15 45 0 66 -12 66 -36 0 -22 4 -24 45 -24 25 0 62 -7 82 -15 19 -8 54 -15
77 -15 22 0 76 -7 119 -15 106 -20 395 -20 500 0 43 8 104 15 136 15 32 0 62
5 69 12 7 7 39 15 70 18 46 4 57 8 57 23 0 22 22 37 56 37 15 0 32 7 39 15 7
8 23 15 35 15 12 0 28 7 35 15 7 8 21 15 31 15 10 0 21 5 24 11 4 5 18 14 31
19 13 5 24 18 24 28 0 10 16 34 36 53 20 18 42 46 50 61 18 35 17 118 -1 142
-8 11 -15 29 -15 41 0 28 -89 108 -142 128 -10 3 -18 15 -18 26 0 14 -10 23
-32 30 -18 5 -49 15 -68 22 -19 6 -51 17 -70 24 -57 20 -172 45 -206 45 -58 0
-94 11 -92 29 2 11 -9 17 -42 23 -47 7 -461 8 -517 1z"/>
<path d="M1928 1345 c-10 -13 -18 -30 -18 -38 0 -23 -128 -104 -185 -116 -19
-4 -31 -14 -34 -26 -4 -25 -19 -35 -51 -35 -14 0 -34 -7 -44 -15 -11 -8 -37
-15 -59 -15 -21 0 -48 -5 -60 -12 -12 -6 -60 -15 -107 -20 -47 -4 -110 -12
-140 -17 -74 -13 -369 -13 -450 0 -36 5 -101 13 -145 18 -44 4 -90 13 -102 19
-12 7 -39 12 -60 12 -21 0 -48 6 -59 14 -11 8 -35 16 -54 18 -27 2 -35 8 -40
28 -4 18 -14 26 -32 28 -15 2 -32 10 -38 18 -7 8 -21 14 -31 14 -27 0 -119 71
-119 91 0 15 -30 49 -43 49 -12 0 -8 -938 3 -945 6 -3 10 -16 10 -28 0 -26 92
-121 128 -132 13 -4 21 -13 20 -22 -6 -32 171 -99 325 -124 54 -9 67 -15 67
-30 0 -22 11 -24 227 -40 129 -10 199 -10 345 1 194 13 231 21 222 43 -4 11
11 17 63 25 82 14 147 30 190 48 17 8 36 14 41 14 6 0 23 7 39 14 15 8 36 17
46 20 9 3 17 14 17 25 0 12 16 28 43 45 46 26 97 84 97 109 0 8 7 31 15 50 13
31 15 109 15 487 0 473 -1 482 -42 425z"/>
</g>
</svg>
