<?xml version="1.0" standalone="no"?>
<!DOCTYPE svg PUBLIC "-//W3C//DTD SVG 20010904//EN"
 "http://www.w3.org/TR/2001/REC-SVG-20010904/DTD/svg10.dtd">
<svg version="1.0" xmlns="http://www.w3.org/2000/svg"
 width="32.000000pt" height="38.000000pt" viewBox="0 0 32.000000 38.000000"
 preserveAspectRatio="xMidYMid meet">
<metadata>
Created by potrace 1.10, written by Peter Selinger 2001-2011
</metadata>
<g transform="translate(0.000000,38.000000) scale(0.100000,-0.100000)"
fill="#0084ff" stroke="none">
<path d="M40 358 c-39 -21 -38 -52 2 -69 43 -18 193 -18 236 0 35 15 42 40 16
62 -24 19 -220 24 -254 7z m214 -18 c40 -13 42 -16 23 -33 -19 -18 -36 -21
-112 -23 -67 -1 -135 15 -135 33 0 5 19 16 41 24 48 17 130 17 183 -1z"/>
<path d="M11 235 c0 -47 4 -58 24 -71 34 -22 149 -28 212 -11 29 8 50 10 47 6
-18 -29 -182 -38 -241 -14 -45 19 -43 19 -43 -8 0 -34 39 -49 138 -55 59 -3
82 -1 82 7 0 7 5 9 11 6 5 -4 23 -2 39 5 28 12 29 12 28 101 0 85 -1 88 -20
78 -11 -6 -52 -17 -91 -24 l-72 -14 60 3 c33 2 74 7 90 11 28 7 29 6 10 -8
-44 -32 -148 -40 -222 -16 -31 10 -46 29 -23 29 6 0 10 -4 10 -8 0 -11 56 -9
67 1 4 5 -3 8 -17 6 -14 -2 -39 5 -57 14 l-32 17 0 -55z m96 -26 c50 -10 125
-2 178 17 15 5 17 4 9 -5 -6 -6 -38 -17 -72 -23 -67 -12 -175 0 -196 23 -8 9
-6 10 9 5 11 -4 44 -12 72 -17z m20 -32 c32 -2 79 2 105 9 54 14 75 1 26 -15
-67 -21 -115 -23 -172 -7 -31 9 -56 21 -56 27 0 6 6 6 19 -1 11 -5 46 -11 78
-13z m43 -59 c36 1 65 1 65 2 0 1 12 3 28 5 24 3 26 2 12 -12 -9 -8 -22 -12
-30 -9 -8 3 -17 1 -20 -4 -7 -12 -128 -13 -139 -2 -8 7 -12 8 -40 11 -8 0 -16
7 -19 15 -4 11 2 12 36 4 23 -6 71 -10 107 -10z"/>
<path d="M10 78 c0 -52 35 -68 145 -68 109 0 155 18 155 61 l0 28 -37 -16
c-53 -23 -187 -23 -230 0 -33 17 -33 17 -33 -5z m266 -23 c-35 -26 -108 -35
-170 -21 -32 8 -63 19 -69 26 -10 10 -8 11 8 5 34 -12 187 -15 201 -4 7 6 18
8 24 4 5 -3 10 -1 10 6 0 7 3 9 7 5 5 -4 0 -14 -11 -21z"/>
</g>
</svg>
