<?xml version="1.0" standalone="no"?>
<!DOCTYPE svg PUBLIC "-//W3C//DTD SVG 20010904//EN"
 "http://www.w3.org/TR/2001/REC-SVG-20010904/DTD/svg10.dtd">
<svg version="1.0" xmlns="http://www.w3.org/2000/svg"
 width="132.000000pt" height="132.000000pt" viewBox="0 0 132.000000 132.000000"
 style="background-color: #0084ff"
 preserveAspectRatio="xMidYMid meet">
<metadata>
Created by potrace 1.10, written by Peter Selinger 2001-2011
</metadata>
<g transform="translate(0.000000,132.000000) scale(0.100000,-0.100000)"
fill="#fff" stroke="none">
<path d="M1075 1279 c-49 -4 -177 -8 -282 -10 -149 -1 -196 -5 -204 -16 -7 -7
-20 -11 -30 -8 -10 3 -21 0 -26 -8 -5 -8 -34 -17 -73 -21 -42 -4 -69 -12 -77
-22 -7 -10 -19 -13 -32 -9 -16 5 -23 1 -31 -20 -8 -20 -15 -25 -30 -20 -11 3
-25 3 -32 -1 -7 -5 -22 -8 -33 -9 -15 0 -21 -8 -23 -29 -3 -28 -2 -29 30 -22
64 13 304 27 418 24 104 -2 115 -1 118 15 3 14 12 18 38 15 18 -1 39 3 46 10
6 6 22 12 35 12 13 0 26 7 29 15 4 8 17 15 29 15 13 0 27 5 31 11 3 6 16 8 29
5 15 -4 25 -1 29 9 3 8 16 15 30 15 14 0 28 5 31 10 3 6 26 10 51 10 31 0 44
4 44 14 0 20 -15 22 -115 15z m-191 -68 c6 -10 -14 -15 -96 -26 -25 -3 -52
-13 -58 -20 -14 -17 -31 -20 -27 -6 1 5 -7 16 -18 25 -20 14 -20 15 5 25 32
12 187 14 194 2z"/>
<path d="M1197 1244 c-4 -4 -7 -33 -7 -65 0 -50 3 -59 21 -64 30 -10 37 2 41
70 3 58 2 60 -22 63 -14 2 -29 0 -33 -4z"/>
<path d="M1066 1123 c10 -59 21 -61 26 -3 2 26 -1 35 -15 38 -16 3 -17 -1 -11
-35z"/>
<path d="M986 1135 c-3 -8 -16 -15 -30 -15 -13 0 -26 -7 -30 -15 -3 -8 -17
-15 -31 -15 -14 0 -28 -7 -32 -16 -4 -10 -16 -14 -39 -12 -44 3 -56 -10 -52
-63 3 -43 4 -44 40 -47 29 -2 39 1 48 18 8 15 17 19 31 15 12 -4 21 -1 25 9 3
9 17 16 30 16 14 0 27 7 30 15 4 8 17 15 29 15 29 0 34 7 41 64 7 46 7 46 -24
46 -17 0 -32 -6 -36 -15z"/>
<path d="M116 1094 c-6 -21 -11 -25 -31 -20 -33 8 -43 -15 -36 -87 l6 -59 325
1 325 0 -2 48 c-1 26 -2 50 -2 53 -1 3 -103 5 -229 5 -278 1 -299 4 -318 51
-17 41 -29 43 -38 8z m454 -100 c7 -8 10 -18 6 -22 -13 -12 -342 -19 -354 -7
-17 17 29 30 121 35 208 10 215 10 227 -6z m80 -24 c0 -5 -7 -10 -15 -10 -8 0
-15 5 -15 10 0 6 7 10 15 10 8 0 15 -4 15 -10z"/>
<path d="M1192 1050 c-9 -14 -23 -20 -51 -20 -25 0 -41 -5 -45 -15 -3 -8 -14
-15 -24 -15 -11 0 -25 -7 -32 -15 -7 -9 -20 -13 -28 -10 -21 8 -32 -13 -32
-61 0 -51 22 -65 55 -34 13 12 29 18 38 15 10 -4 20 1 27 15 9 17 17 20 45 14
24 -4 35 -2 41 9 5 8 20 17 34 19 23 3 25 7 25 58 0 47 -3 55 -20 58 -12 1
-25 -6 -33 -18z"/>
<path d="M865 899 c-4 -6 -22 -9 -41 -7 -45 3 -56 -10 -52 -68 l3 -49 35 3
c19 2 40 10 46 18 6 8 21 14 33 14 13 0 21 6 22 18 0 9 2 32 5 50 3 28 1 32
-20 32 -14 0 -28 -5 -31 -11z"/>
<path d="M1203 893 c-8 -3 -13 -25 -13 -59 0 -54 0 -54 30 -54 l31 0 -3 57
c-3 58 -13 70 -45 56z"/>
<path d="M640 859 c-19 -5 -159 -8 -310 -7 l-275 2 2 -49 c1 -28 2 -52 2 -55
1 -3 146 -4 323 -3 l323 2 2 43 c3 79 -2 84 -67 67z m-535 -70 l-8 -24 -8 24
c-10 27 -2 48 13 33 6 -6 7 -20 3 -33z m463 34 c14 -3 22 -12 20 -22 -3 -14
-28 -16 -211 -18 -114 -2 -207 0 -207 4 0 3 8 15 17 25 15 17 33 18 187 18 94
-1 181 -4 194 -7z"/>
<path d="M1040 811 c-8 -6 -18 -7 -23 -4 -5 3 -19 -5 -32 -17 -13 -12 -28 -19
-34 -16 -6 4 -16 -2 -23 -14 -7 -11 -23 -20 -36 -20 -12 0 -25 -7 -29 -16 -4
-12 -14 -14 -41 -9 -43 8 -52 -3 -52 -67 l0 -48 39 0 c25 0 41 5 45 15 3 8 17
15 30 15 15 0 30 8 36 20 6 12 16 17 26 13 10 -4 20 1 26 10 5 10 20 17 33 17
19 0 26 7 34 38 6 20 11 43 11 50 0 6 5 12 10 12 6 0 10 -11 10 -25 0 -14 4
-25 9 -25 9 0 21 60 14 73 -6 10 -35 9 -53 -2z"/>
<path d="M1194 713 c-7 -12 -21 -17 -44 -15 -23 2 -37 -3 -46 -17 -9 -12 -21
-17 -33 -14 -13 3 -21 -2 -26 -16 -4 -14 -15 -21 -30 -21 -27 0 -39 -27 -33
-76 4 -37 41 -46 58 -14 6 12 18 19 25 16 7 -2 21 4 31 15 13 14 27 19 47 16
20 -3 32 2 40 15 7 10 23 18 39 18 27 0 28 2 28 55 0 50 -2 55 -23 55 -12 0
-27 -8 -33 -17z"/>
<path d="M645 679 c-22 -5 -164 -8 -315 -7 -209 2 -275 -1 -274 -10 1 -7 2
-30 2 -51 l2 -40 302 -1 c167 0 312 -2 323 -3 16 -2 21 5 23 37 4 43 -4 87
-16 85 -4 -1 -25 -5 -47 -10z m-82 -36 c26 -4 27 -6 13 -22 -14 -15 -39 -17
-193 -18 -171 -1 -192 2 -193 29 0 4 19 8 43 10 74 6 301 7 330 1z"/>
<path d="M864 549 c-4 -7 -21 -9 -45 -5 -35 6 -39 4 -44 -17 -4 -13 -5 -41 -3
-63 3 -37 5 -39 39 -42 30 -3 37 1 47 23 7 16 19 25 29 23 12 -2 19 7 25 32 4
19 5 41 3 48 -5 15 -41 16 -51 1z"/>
<path d="M1194 546 c-3 -7 -4 -33 -2 -57 3 -39 6 -44 28 -44 23 0 25 4 28 58
3 55 2 57 -23 57 -14 0 -28 -6 -31 -14z"/>
<path d="M58 458 c-3 -35 -5 -64 -4 -65 1 -1 148 -3 326 -3 l325 -2 0 64 0 63
-45 -1 c-212 -6 -463 -6 -502 0 -41 7 -47 6 -53 -13 -3 -11 -3 -25 0 -31 3 -6
3 -20 -2 -33 -6 -18 -9 -13 -13 27 -7 73 -27 69 -32 -6z m557 5 c47 -9 48 -10
20 -17 -16 -3 -43 -11 -60 -15 -44 -13 -365 -12 -397 1 -42 16 -35 36 15 41
70 7 368 0 422 -10z"/>
<path d="M1050 469 c0 -7 -11 -9 -26 -6 -18 3 -29 -1 -37 -14 -7 -11 -21 -19
-33 -19 -12 0 -24 -7 -28 -15 -3 -8 -16 -15 -30 -15 -16 0 -27 -7 -31 -21 -6
-18 -12 -20 -46 -14 -35 6 -39 4 -44 -18 -4 -13 -5 -39 -3 -58 3 -31 6 -34 40
-37 29 -3 38 1 43 17 4 14 15 21 31 21 14 0 27 7 30 15 4 8 16 15 28 15 12 0
27 9 34 20 7 12 18 20 25 19 29 -4 36 4 43 46 6 46 24 53 24 9 0 -13 4 -24 9
-24 11 0 20 46 14 71 -6 20 -43 27 -43 8z"/>
<path d="M1194 376 c-12 -19 -25 -26 -50 -26 -23 0 -37 -6 -44 -21 -7 -12 -18
-18 -26 -15 -8 3 -22 -3 -30 -13 -9 -10 -24 -16 -35 -14 -21 6 -27 -13 -32
-91 -2 -40 -7 -50 -25 -57 -25 -9 -29 -4 -34 46 -4 35 -33 46 -52 19 -10 -13
-22 -16 -49 -11 -42 7 -47 -1 -47 -79 0 -56 1 -57 51 -68 20 -4 29 0 39 19 9
17 17 22 24 15 15 -15 22 -12 34 16 9 19 17 24 32 19 14 -4 22 -1 26 10 5 12
14 15 30 11 19 -5 25 -2 30 19 4 18 13 25 30 25 12 0 27 7 32 17 7 12 18 15
47 10 31 -5 38 -3 42 13 3 13 14 20 29 20 34 0 45 29 36 96 -8 67 -30 82 -58
40z"/>
<path d="M369 342 l-315 -2 2 -63 1 -62 174 -2 c96 -2 240 -4 321 -5 116 -2
149 0 153 10 11 28 5 120 -7 123 -7 2 -155 3 -329 1z m-267 -84 c-9 -9 -12 -4
-11 23 0 32 1 33 11 11 8 -17 8 -26 0 -34z m465 44 c6 -4 7 -15 2 -29 -6 -18
-19 -22 -71 -28 -87 -9 -319 2 -332 15 -12 12 9 29 49 41 28 9 338 9 352 1z"/>
<path d="M369 162 l-315 -2 0 -62 1 -62 305 -2 c168 -1 314 -4 325 -6 18 -3
20 3 20 66 0 39 -4 70 -10 70 -5 1 -152 0 -326 -2z m207 -55 c17 -17 -15 -22
-159 -25 -161 -3 -257 4 -257 18 0 5 24 10 53 12 102 6 356 3 363 -5z"/>
</g>
</svg>
