<?xml version="1.0" standalone="no"?>
<!DOCTYPE svg PUBLIC "-//W3C//DTD SVG 20010904//EN"
 "http://www.w3.org/TR/2001/REC-SVG-20010904/DTD/svg10.dtd">
<svg version="1.0" xmlns="http://www.w3.org/2000/svg"
 width="207.000000pt" height="207.000000pt" viewBox="0 0 207.000000 207.000000"
 style="background-color: #ffffff"
 preserveAspectRatio="xMidYMid meet">
<metadata>
Created by potrace 1.10, written by Peter Selinger 2001-2011
</metadata>
<g transform="translate(0.000000,207.000000) scale(0.100000,-0.100000)"
fill="#0084ff" stroke="none">
<path d="M1075 2010 c-3 -5 -23 -10 -44 -10 -22 0 -44 -6 -51 -15 -7 -8 -23
-15 -36 -15 -12 0 -25 -4 -28 -8 -3 -4 -28 -14 -56 -22 -28 -8 -53 -18 -56
-22 -3 -4 -22 -8 -43 -8 -22 0 -44 -6 -51 -15 -7 -8 -21 -15 -32 -15 -11 0
-26 -7 -35 -15 -8 -8 -19 -12 -24 -9 -6 3 -19 -2 -30 -12 -10 -9 -22 -14 -25
-11 -4 4 -21 -1 -38 -10 -17 -9 -39 -20 -48 -24 -10 -5 -33 -9 -52 -9 -18 0
-39 -7 -46 -15 -7 -8 -23 -15 -36 -15 -13 0 -24 -4 -24 -10 0 -5 -10 -10 -23
-10 -23 0 -47 -17 -47 -32 0 -4 211 -8 469 -8 408 0 470 2 475 15 3 8 16 15
30 15 13 0 26 7 30 15 3 9 19 15 41 15 32 0 50 6 95 32 8 4 22 11 30 14 8 3
23 10 34 16 10 5 28 11 40 14 11 2 22 8 24 14 2 5 14 10 27 10 12 0 28 7 35
15 8 10 26 15 47 13 24 -1 38 3 44 15 6 9 21 17 33 17 13 0 26 7 30 15 3 8 17
15 31 15 14 0 25 5 25 10 0 6 13 10 29 10 20 0 30 6 34 19 3 14 16 21 43 24
22 2 -153 4 -388 5 -276 1 -429 -2 -433 -8z"/>
<path d="M1941 1971 c-8 -13 -26 -20 -71 -24 -34 -4 -66 -9 -71 -13 -5 -3 -9
-54 -9 -114 0 -87 3 -109 15 -114 20 -7 42 2 49 21 4 10 14 13 35 8 19 -4 33
-1 43 9 8 8 26 16 39 18 23 3 24 6 27 93 2 50 0 100 -3 113 -7 27 -40 30 -54
3z"/>
<path d="M1670 1860 c0 -5 -18 -10 -40 -10 -27 0 -43 -5 -46 -15 -4 -8 -18
-15 -34 -15 -16 0 -30 -7 -34 -15 -3 -8 -16 -15 -30 -15 -13 0 -26 -7 -30 -15
-3 -8 -16 -15 -30 -15 -13 0 -26 -7 -30 -15 -3 -8 -17 -15 -31 -15 -14 0 -28
-7 -32 -16 -4 -12 -14 -14 -36 -10 -19 4 -36 1 -46 -8 -9 -8 -25 -16 -36 -18
-18 -3 -20 -12 -23 -107 -3 -127 12 -158 57 -110 15 16 26 19 49 14 25 -5 33
-2 42 15 6 12 18 19 25 16 7 -2 21 4 31 15 9 10 27 19 39 19 13 0 25 7 29 15
3 8 15 15 26 15 20 0 27 3 85 33 17 8 42 13 57 10 19 -4 29 0 37 15 6 11 21
22 33 24 22 3 23 8 26 111 l3 107 -31 0 c-16 0 -30 -4 -30 -10z"/>
<path d="M1943 1710 c-11 -12 -30 -20 -49 -20 -17 0 -37 -7 -44 -15 -7 -8 -20
-15 -30 -15 -10 0 -23 -7 -30 -15 -7 -8 -23 -15 -36 -15 -13 0 -24 -4 -24 -10
0 -5 -13 -10 -29 -10 -16 0 -31 -6 -35 -15 -3 -10 -19 -15 -45 -15 -25 0 -41
-5 -45 -15 -3 -8 -16 -15 -29 -15 -30 0 -37 -27 -37 -136 0 -62 3 -75 19 -84
23 -12 47 -5 55 16 4 10 17 14 40 12 19 -1 41 4 50 11 8 7 19 10 24 7 5 -3 20
3 32 14 13 11 29 20 37 20 8 0 21 7 30 15 8 8 19 12 25 9 5 -3 19 4 30 16 15
16 27 20 48 15 23 -5 31 -2 40 15 6 12 17 19 25 17 27 -11 35 17 35 119 0 84
-3 103 -16 108 -22 8 -22 8 -41 -14z"/>
<path d="M107 1663 c-4 -3 -7 -55 -7 -113 0 -79 4 -111 14 -119 9 -8 152 -10
512 -9 l499 3 3 123 3 122 -509 0 c-280 0 -512 -3 -515 -7z"/>
<path d="M1397 1476 c-4 -9 -17 -16 -31 -16 -13 0 -26 -7 -30 -15 -3 -10 -19
-15 -45 -15 -25 0 -41 -5 -45 -15 -3 -8 -17 -15 -31 -15 l-25 0 0 -109 c0
-121 8 -136 55 -99 16 13 35 18 51 15 14 -2 31 2 39 10 8 8 25 16 37 18 12 3
26 11 30 20 5 8 18 15 29 15 29 0 40 41 37 134 l-3 81 -31 3 c-21 2 -33 -2
-37 -12z"/>
<path d="M1937 1446 c-4 -11 -19 -16 -46 -16 -25 0 -41 -5 -45 -15 -3 -8 -17
-15 -31 -15 l-25 0 0 -109 c0 -92 3 -110 17 -115 10 -4 25 2 39 15 16 15 30
20 48 15 18 -4 30 0 45 15 11 12 24 18 29 15 23 -14 33 24 30 120 -3 99 -3 99
-29 102 -17 2 -29 -3 -32 -12z"/>
<path d="M109 1378 c-11 -21 -12 -208 0 -226 12 -19 1008 -23 1016 -4 8 21 6
226 -3 237 -4 6 -185 10 -505 10 -458 0 -500 -1 -508 -17z"/>
<path d="M1670 1325 c-7 -8 -27 -15 -45 -15 -18 0 -38 -7 -45 -15 -7 -8 -20
-15 -30 -15 -10 0 -23 -7 -30 -15 -7 -8 -23 -15 -36 -15 -15 0 -24 -6 -24 -15
0 -9 -9 -15 -25 -15 -14 0 -28 -7 -31 -15 -4 -8 -17 -15 -30 -15 -14 0 -27 -7
-30 -15 -4 -10 -20 -15 -44 -15 -21 0 -43 -6 -50 -14 -6 -8 -21 -16 -33 -18
-21 -3 -22 -9 -25 -112 -2 -81 1 -112 10 -118 19 -12 27 -10 45 12 12 13 30
20 54 20 25 0 39 5 43 16 4 9 13 14 21 10 9 -3 23 3 32 14 10 11 26 20 36 20
10 0 25 7 33 15 8 8 21 12 29 9 10 -4 18 3 25 20 7 18 17 26 34 26 13 0 26 7
30 15 3 10 19 15 45 15 24 0 41 5 44 14 3 8 16 16 29 18 22 3 23 6 23 108 0
99 -1 105 -21 108 -11 2 -27 -4 -34 -13z"/>
<path d="M1940 1175 c-7 -8 -27 -15 -45 -15 -18 0 -38 -7 -45 -15 -7 -8 -20
-15 -30 -15 -10 0 -23 -7 -30 -15 -7 -8 -23 -15 -35 -15 -13 0 -25 -7 -29 -15
-3 -8 -14 -15 -24 -15 -11 0 -25 -7 -32 -15 -7 -8 -28 -15 -47 -15 -21 0 -36
-6 -39 -15 -4 -8 -18 -15 -34 -15 -34 0 -40 -17 -40 -127 0 -71 3 -84 19 -93
23 -12 47 -5 55 16 3 8 19 14 39 14 19 0 40 7 47 15 7 8 20 15 30 15 10 0 23
7 30 15 7 8 23 15 35 15 13 0 25 7 29 15 3 8 14 15 25 15 11 0 25 9 31 20 8
16 20 20 46 18 22 -1 39 3 44 12 5 8 15 16 22 16 7 1 19 2 26 3 10 1 12 26 10
104 -3 95 -4 102 -24 105 -11 2 -27 -4 -34 -13z"/>
<path d="M112 1098 c-14 -14 -17 -195 -3 -216 7 -11 105 -14 510 -15 494 -2
502 -2 507 18 3 11 4 65 2 120 l-3 100 -500 3 c-381 2 -504 -1 -513 -10z"/>
<path d="M1400 920 c-8 -5 -25 -10 -36 -10 -12 0 -24 -7 -28 -15 -3 -10 -19
-15 -45 -15 -25 0 -41 -5 -45 -15 -3 -8 -17 -15 -31 -15 l-25 0 0 -115 0 -115
29 0 c20 0 30 6 34 20 4 16 14 20 45 20 26 0 42 5 46 15 3 8 14 15 24 15 11 0
25 7 32 15 7 8 20 15 30 15 27 0 41 49 38 131 -3 71 -4 74 -28 77 -14 1 -32
-2 -40 -8z"/>
<path d="M1943 910 c-12 -13 -30 -20 -54 -20 -24 0 -39 -5 -43 -15 -3 -8 -17
-15 -31 -15 l-25 0 0 -104 c0 -83 3 -105 15 -110 20 -7 42 2 49 20 3 9 20 14
45 14 24 0 41 5 44 14 3 8 16 16 29 18 22 3 23 7 26 102 2 73 -1 102 -10 108
-19 12 -27 10 -45 -12z"/>
<path d="M111 826 c-8 -9 -11 -51 -9 -122 l3 -109 513 -3 513 -2 -3 122 -3
123 -501 3 c-421 2 -503 0 -513 -12z"/>
<path d="M1670 785 c-7 -8 -29 -15 -50 -15 -24 0 -40 -5 -44 -15 -3 -8 -14
-15 -25 -15 -11 0 -25 -9 -31 -20 -6 -11 -21 -20 -34 -20 -13 0 -26 -7 -30
-15 -3 -8 -16 -15 -30 -15 -13 0 -26 -7 -30 -15 -3 -8 -14 -15 -24 -15 -11 0
-25 -7 -32 -15 -7 -8 -29 -15 -50 -15 -29 0 -39 -5 -43 -19 -2 -11 -15 -21
-28 -23 -23 -3 -24 -6 -27 -110 l-3 -108 24 0 c14 0 30 7 37 15 7 8 29 15 50
15 24 0 40 5 44 15 3 8 14 15 25 15 11 0 25 9 31 20 6 11 19 20 29 20 10 0 24
7 31 15 7 8 23 15 36 15 14 0 25 8 29 20 4 12 15 20 30 20 12 0 26 7 29 15 4
11 17 15 42 13 25 -1 39 3 45 15 6 9 21 17 34 17 l25 0 0 110 c0 109 0 110
-24 110 -13 0 -29 -7 -36 -15z"/>
<path d="M1937 647 c-12 -19 -22 -23 -45 -19 -23 3 -33 -1 -41 -17 -7 -12 -22
-21 -35 -21 -13 0 -26 -7 -30 -15 -3 -8 -17 -15 -31 -15 -16 0 -25 -6 -25 -15
0 -9 -9 -15 -24 -15 -13 0 -29 -7 -36 -15 -7 -9 -29 -15 -51 -15 -28 0 -39 -4
-39 -15 0 -14 -11 -19 -38 -16 -6 1 -17 -10 -22 -24 -14 -37 -13 -178 2 -193
19 -19 46 -14 59 9 8 16 17 20 39 16 20 -4 33 -1 45 13 10 11 27 20 37 20 10
0 21 7 24 15 4 8 17 15 30 15 13 0 28 9 34 20 6 11 19 20 29 20 10 0 24 7 31
15 7 8 27 15 46 15 23 0 37 6 44 21 7 11 17 18 25 16 26 -11 35 17 35 108 0
89 -8 115 -36 115 -6 0 -19 -11 -27 -23z"/>
<path d="M104 547 c-2 -7 -3 -60 -2 -118 l3 -104 513 -3 512 -2 0 120 0 120
-510 0 c-413 0 -512 -3 -516 -13z"/>
<path d="M1400 376 c-7 -9 -20 -16 -30 -16 -10 0 -23 -7 -30 -15 -7 -8 -27
-15 -45 -15 -18 0 -38 -6 -45 -14 -6 -8 -21 -16 -33 -18 -21 -3 -22 -8 -22
-113 0 -95 2 -110 17 -113 9 -2 25 6 35 17 12 14 29 21 54 21 24 0 39 5 43 15
3 8 14 15 25 15 11 0 25 9 31 20 6 11 19 20 30 20 26 0 42 58 38 140 -3 62 -4
65 -29 68 -14 2 -31 -4 -39 -12z"/>
<path d="M107 283 c-4 -3 -7 -55 -7 -113 0 -79 4 -111 14 -119 9 -8 152 -10
512 -9 l499 3 3 123 3 122 -509 0 c-280 0 -512 -3 -515 -7z"/>
</g>
</svg>
