<?xml version="1.0" standalone="no"?>
<!DOCTYPE svg PUBLIC "-//W3C//DTD SVG 20010904//EN"
 "http://www.w3.org/TR/2001/REC-SVG-20010904/DTD/svg10.dtd">
<svg version="1.0" xmlns="http://www.w3.org/2000/svg"
 width="198.000000pt" height="198.000000pt" viewBox="0 0 198.000000 198.000000"
 style="background-color: #0084ff"
 preserveAspectRatio="xMidYMid meet">
<metadata>
Created by potrace 1.10, written by Peter Selinger 2001-2011
</metadata>
<g transform="translate(0.000000,198.000000) scale(0.100000,-0.100000)"
fill="#ffffff" stroke="none">
<path d="M1765 1919 c-55 -4 -402 -7 -772 -6 -621 1 -673 0 -691 -16 -10 -9
-24 -17 -30 -17 -7 0 -12 -4 -12 -8 0 -4 -41 -35 -90 -67 -91 -60 -107 -83
-54 -77 16 2 384 6 817 8 l788 4 47 46 c26 25 66 59 89 75 24 16 47 39 53 49
12 23 22 22 -145 9z"/>
<path d="M1880 1842 c0 -5 -31 -42 -70 -83 l-69 -74 -1 -750 c0 -412 -3 -774
-6 -802 -5 -34 -3 -53 4 -53 5 0 46 37 91 82 l81 82 0 800 c1 716 -1 801 -14
804 -9 2 -16 -1 -16 -6z"/>
<path d="M55 1698 c-3 -7 -4 -386 -3 -843 3 -823 3 -830 23 -828 28 3 1575 3
1600 0 18 -2 20 4 20 46 -1 26 -2 397 -3 825 l-2 777 -770 -3 c-810 -3 -775
-4 -852 36 -5 2 -10 -2 -13 -10z m865 -102 c0 -8 16 -35 35 -60 42 -56 44 -74
8 -78 l-28 -3 -5 -100 -5 -100 -32 -3 -33 -3 0 105 0 106 -29 0 c-52 0 -49 24
8 89 11 13 21 32 21 43 0 13 7 18 30 18 19 0 30 -5 30 -14z m-216 -7 c3 -3 7
-31 7 -63 1 -31 6 -59 10 -62 5 -3 9 -19 9 -35 0 -17 5 -39 11 -50 12 -24 -2
-46 -39 -60 -36 -14 -60 -2 -82 41 -11 22 -32 47 -46 57 -15 10 -37 29 -50 42
-18 18 -38 24 -86 28 l-63 5 -52 -51 c-88 -87 -84 -157 16 -257 32 -32 68 -67
80 -76 27 -23 26 -36 -3 -73 -20 -24 -27 -28 -37 -17 -7 6 -30 12 -50 12 -21
0 -41 4 -44 10 -3 5 -25 7 -48 4 -30 -4 -46 -2 -54 7 -8 9 -12 94 -14 252 -3
234 -2 238 19 260 16 16 39 23 80 27 79 7 429 6 436 -1z m859 0 c55 -30 56
-36 57 -285 0 -218 -1 -232 -20 -249 -15 -13 -29 -16 -57 -12 -22 4 -42 2 -51
-6 -8 -6 -39 -12 -68 -13 -46 -2 -54 1 -54 16 0 11 -4 22 -10 25 -20 12 -10
45 19 59 39 21 110 102 133 154 26 59 17 90 -46 157 -49 52 -54 55 -101 55
-36 0 -59 -7 -89 -27 -57 -38 -105 -83 -122 -115 -16 -30 -38 -35 -77 -17 -22
10 -25 17 -23 66 1 33 7 57 15 62 9 6 11 16 5 32 -8 24 -6 80 3 89 2 3 98 7
211 10 114 3 217 7 230 8 13 1 33 -3 45 -9z m-1127 -198 c30 -11 62 -17 70
-14 22 8 29 -25 8 -48 -17 -19 -16 -21 49 -87 42 -43 67 -76 67 -90 0 -28 11
-28 47 1 72 59 97 67 215 67 121 0 166 -13 222 -65 15 -14 31 -25 37 -25 5 0
9 -4 9 -9 0 -6 11 -22 24 -36 57 -61 69 -101 69 -227 1 -97 -2 -120 -16 -136
-9 -10 -17 -23 -17 -29 0 -5 -25 -37 -55 -71 -79 -87 -156 -122 -268 -122 -53
0 -92 5 -111 15 -15 8 -35 15 -43 15 -18 0 -183 165 -183 183 0 8 -6 27 -14
41 -7 14 -14 58 -15 98 -2 82 19 154 61 209 34 45 35 59 5 59 -15 0 -45 23
-87 65 -61 62 -65 64 -87 50 -34 -23 -43 -18 -43 23 0 21 -6 46 -13 57 -21 30
-27 67 -15 82 14 17 18 17 84 -6z m1000 6 c3 -8 -2 -34 -10 -58 -9 -24 -16
-59 -16 -77 0 -37 -27 -56 -42 -29 -15 28 -30 20 -96 -46 -50 -50 -68 -63 -87
-60 -14 3 -25 14 -28 28 -3 19 10 37 60 87 66 66 74 81 46 96 -27 15 -8 42 29
42 18 0 51 7 73 15 51 18 64 18 71 2z m-1141 -467 l6 -30 91 2 c79 1 93 -1
105 -18 29 -40 15 -49 -97 -54 -96 -5 -105 -7 -106 -25 -1 -11 -2 -26 -3 -32
-2 -21 -26 -15 -57 13 -16 14 -44 32 -61 40 -25 11 -33 21 -33 39 0 17 6 25
18 25 9 0 35 16 57 35 50 43 71 44 80 5z m1271 -5 c25 -19 52 -35 60 -35 9 0
14 -11 14 -30 0 -23 -5 -30 -18 -30 -11 0 -30 -10 -43 -21 -65 -57 -89 -60
-89 -9 l0 29 -107 3 c-102 3 -108 4 -111 25 -5 32 27 44 126 46 87 2 87 2 90
30 4 36 22 34 78 -8z m-1133 -276 c2 -24 -3 -36 -18 -43 -74 -38 -143 -132
-152 -204 -5 -44 -3 -51 36 -100 45 -57 72 -72 127 -72 69 0 144 53 200 141
27 43 38 46 89 25 34 -15 46 -38 25 -51 -5 -3 -10 -21 -10 -40 0 -19 -4 -37
-10 -40 -5 -3 -10 -25 -10 -49 0 -23 -5 -47 -12 -54 -9 -9 -79 -12 -253 -12
-229 0 -243 1 -260 20 -17 18 -18 41 -16 262 1 134 4 245 7 247 2 3 25 4 50 2
25 -1 52 3 60 10 7 6 24 9 36 6 13 -3 34 0 48 8 22 12 27 12 43 -4 10 -10 19
-33 20 -52z m1037 45 c19 -3 53 -6 74 -7 33 -2 42 -7 58 -36 18 -31 19 -53 16
-247 -3 -201 -4 -215 -24 -234 -20 -20 -33 -22 -250 -25 -269 -4 -281 -1 -270
67 4 22 3 45 -2 52 -5 6 -12 34 -16 63 l-7 52 37 17 c37 18 37 18 53 -5 83
-118 183 -178 264 -157 13 3 45 31 71 62 41 50 46 62 46 106 0 38 -5 54 -23
71 -12 12 -28 34 -34 48 -6 14 -36 43 -67 63 -31 20 -56 41 -56 47 0 5 7 26
15 46 14 33 17 35 48 29 17 -4 48 -10 67 -12z m-846 -103 c23 -25 15 -39 -63
-116 -59 -57 -60 -60 -45 -83 22 -33 12 -50 -25 -44 -19 2 -41 -2 -56 -12 -13
-9 -39 -17 -57 -18 -32 -3 -33 -2 -30 30 1 18 9 44 18 58 11 16 14 35 10 54
-7 38 13 49 45 26 22 -15 25 -13 95 54 39 39 76 70 81 70 6 0 18 -9 27 -19z
m648 -58 c66 -65 68 -66 87 -49 23 21 56 14 47 -9 -3 -8 -1 -28 5 -43 21 -52
28 -96 17 -109 -12 -14 -51 -8 -83 13 -11 8 -36 14 -57 14 -41 0 -47 12 -23
45 14 18 11 24 -50 85 -51 51 -63 70 -59 87 5 19 13 24 44 32 2 0 35 -29 72
-66z m-357 -67 c16 -11 18 -26 17 -104 l-2 -91 30 -6 c39 -9 38 -27 -3 -78
-19 -23 -37 -50 -40 -59 -11 -30 -45 -22 -61 15 -8 17 -26 45 -40 61 -28 31
-34 55 -13 57 6 1 21 2 32 3 18 1 20 9 23 101 3 113 14 133 57 101z"/>
</g>
</svg>
