<?xml version="1.0" standalone="no"?>
<!DOCTYPE svg PUBLIC "-//W3C//DTD SVG 20010904//EN"
 "http://www.w3.org/TR/2001/REC-SVG-20010904/DTD/svg10.dtd">
<svg version="1.0" xmlns="http://www.w3.org/2000/svg"
 width="261.000000pt" height="261.000000pt" viewBox="0 0 261.000000 261.000000"
 style="background-color: #ffffff"
 preserveAspectRatio="xMidYMid meet">
<metadata>
Created by potrace 1.10, written by Peter Selinger 2001-2011
</metadata>
<g transform="translate(0.000000,261.000000) scale(0.100000,-0.100000)"
fill="#0084ff" stroke="none">
<path d="M450 2540 c-8 -5 -23 -10 -34 -10 -10 0 -38 -13 -63 -30 -24 -16 -52
-30 -61 -30 -9 0 -35 -14 -56 -30 -22 -17 -50 -30 -63 -30 -44 0 -23 -19 29
-25 29 -3 515 -5 1080 -3 l1027 3 48 48 c27 26 55 47 63 47 22 1 60 35 60 54
0 15 -93 16 -1007 16 -634 0 -1014 -4 -1023 -10z"/>
<path d="M2484 2480 c-26 -27 -54 -50 -63 -50 -8 0 -35 -19 -58 -42 l-43 -42
0 -298 c0 -260 2 -299 15 -305 10 -3 27 6 45 27 16 18 33 29 39 26 5 -4 31 16
57 44 26 28 53 49 60 46 31 -12 34 18 34 319 0 362 -1 365 -86 275z"/>
<path d="M99 2348 c-18 -7 -19 -20 -19 -328 l0 -320 1083 0 c829 0 1086 3
1095 12 9 9 12 91 12 308 0 275 -1 298 -18 313 -17 16 -107 17 -1076 20 -581
1 -1066 -1 -1077 -5z m659 -84 c21 -4 32 -13 34 -28 l3 -21 405 0 405 0 3 28
3 27 182 -2 182 -3 3 -58 c2 -35 -2 -64 -9 -73 -9 -11 -53 -14 -226 -14 -177
0 -217 -3 -229 -15 -9 -8 -30 -15 -47 -15 -18 0 -41 -7 -51 -15 -11 -8 -36
-15 -57 -15 -38 0 -94 -34 -84 -51 4 -5 23 -9 43 -9 21 0 46 -6 57 -14 11 -7
39 -17 62 -21 24 -4 45 -11 49 -16 3 -5 15 -9 28 -9 12 0 26 -4 32 -10 5 -5
100 -11 219 -12 l210 -3 3 -61 c2 -43 -1 -64 -11 -73 -10 -8 -64 -11 -183 -9
l-168 3 -6 25 -6 25 -397 3 -396 2 -16 -24 c-9 -14 -22 -23 -30 -20 -7 3 -16
1 -20 -5 -9 -16 -337 -15 -353 1 -16 16 -16 113 1 126 7 6 88 11 207 12 110 0
199 5 204 10 6 6 20 10 32 10 13 0 25 4 28 9 3 5 27 12 53 16 27 4 54 12 61
17 12 10 29 14 80 17 52 3 -2 60 -58 61 -19 0 -44 7 -54 15 -11 8 -36 15 -57
15 -20 0 -42 7 -49 15 -10 12 -47 15 -209 16 -108 1 -207 4 -221 8 -22 6 -25
13 -28 60 -2 30 -1 60 2 67 4 11 41 14 174 14 93 0 183 -3 200 -6z"/>
<path d="M797 2174 c-10 -11 2 -24 22 -24 10 0 24 -7 31 -15 7 -8 29 -15 49
-15 21 0 46 -7 57 -15 10 -8 34 -15 53 -15 19 0 42 -6 50 -14 37 -33 188 -33
236 0 11 8 35 14 55 14 19 0 44 7 54 15 11 8 34 15 51 15 17 0 36 5 43 12 7 7
33 15 60 18 26 3 47 10 47 15 0 11 -797 20 -808 9z"/>
<path d="M1100 1985 c-7 -8 -23 -15 -36 -15 -12 0 -25 -4 -28 -9 -4 -5 -29
-12 -56 -16 -27 -4 -52 -11 -55 -15 -3 -4 -27 -11 -55 -15 -38 -5 -51 -11 -56
-28 -4 -12 -7 -23 -8 -25 -1 -2 178 -4 397 -5 312 -2 397 1 397 11 0 6 -11 12
-24 12 -13 0 -29 6 -35 14 -6 8 -32 17 -56 20 -25 4 -47 11 -50 17 -4 5 -15 9
-26 9 -10 0 -27 4 -37 9 -9 5 -45 15 -80 22 -34 6 -65 16 -68 20 -9 16 -110
10 -124 -6z"/>
<path d="M2490 1805 c-26 -26 -55 -44 -68 -45 -25 0 -78 -51 -93 -88 -5 -13
-9 -356 -9 -808 0 -712 1 -785 16 -791 11 -4 25 5 41 26 14 18 31 30 39 27 8
-3 34 16 61 45 26 27 52 48 59 45 33 -13 34 12 34 814 0 783 -1 820 -29 820
-4 0 -26 -20 -51 -45z"/>
<path d="M82 848 l3 -823 1080 -3 c1003 -2 1081 -1 1092 15 10 13 13 196 13
819 0 720 -2 803 -16 808 -9 3 -501 6 -1095 6 l-1079 0 2 -822z m1129 697 c12
-20 29 -35 40 -35 19 0 39 -27 39 -54 0 -9 -12 -16 -32 -18 l-33 -3 -3 -106
-3 -106 65 -6 c37 -4 89 -17 118 -31 80 -37 110 -40 140 -16 14 11 32 20 40
20 8 0 36 22 63 50 26 27 52 47 56 44 4 -2 10 0 13 5 4 5 -4 11 -16 13 -13 2
-24 10 -26 18 -2 11 17 20 75 34 96 22 139 19 137 -9 -7 -86 -16 -116 -40
-127 -20 -9 -30 -9 -46 1 -18 11 -24 9 -54 -20 -19 -18 -37 -29 -41 -26 -4 4
-26 -12 -50 -35 -42 -41 -53 -70 -33 -83 15 -10 50 -91 50 -118 0 -13 6 -32
14 -43 13 -17 30 -19 155 -22 l141 -4 10 27 c9 25 14 27 47 20 36 -6 123 -61
123 -76 0 -14 -78 -69 -98 -69 -12 0 -24 -4 -27 -10 -11 -19 -35 -10 -45 16
l-10 26 -145 -4 c-157 -3 -165 -6 -165 -59 0 -14 -7 -34 -15 -45 -8 -10 -15
-26 -15 -35 0 -9 -7 -22 -15 -29 -8 -7 -15 -22 -15 -33 0 -24 67 -97 89 -97 8
0 30 -14 47 -31 31 -30 34 -31 49 -15 17 16 49 14 69 -4 12 -11 20 -136 10
-142 -5 -3 -53 2 -107 11 l-99 15 6 30 c5 26 0 36 -36 73 -23 24 -49 43 -58
43 -9 0 -27 11 -40 25 -28 30 -63 27 -138 -11 -26 -13 -60 -24 -77 -24 -16 0
-47 -3 -67 -6 l-38 -7 0 -113 0 -114 33 0 c19 0 36 -3 40 -6 11 -11 -25 -54
-44 -54 -11 0 -24 -10 -29 -22 -21 -52 -52 -73 -64 -43 -3 8 -14 15 -24 15
-26 0 -88 99 -67 105 8 3 22 7 30 10 20 6 22 207 3 223 -7 5 -35 13 -61 16
-27 4 -68 18 -92 30 -68 37 -96 39 -127 9 -15 -14 -35 -26 -45 -27 -10 0 -37
-22 -61 -47 -36 -40 -41 -50 -36 -78 4 -17 3 -31 -2 -32 -44 -4 -106 -12 -144
-19 -24 -4 -48 -6 -52 -4 -11 7 -10 73 2 113 14 51 44 65 75 35 15 -15 19 -14
49 15 17 17 39 31 47 31 9 0 37 22 63 50 32 33 52 47 63 43 11 -4 14 -2 11 8
-3 8 -13 13 -22 11 -9 -2 -19 5 -23 15 -3 10 -11 25 -18 33 -7 8 -20 43 -31
78 l-18 62 -155 -2 c-153 -3 -156 -3 -159 -25 -3 -24 -35 -32 -47 -13 -3 6
-15 10 -27 10 -20 0 -98 55 -98 69 0 15 87 70 123 76 33 7 38 5 47 -19 l10
-27 151 3 151 3 24 73 c13 40 30 83 39 95 8 12 15 26 15 32 0 18 -90 104 -103
99 -7 -2 -25 9 -41 25 -25 26 -31 28 -52 19 -17 -8 -31 -8 -47 -1 -20 9 -26
23 -34 75 -6 34 -9 66 -6 71 14 23 215 -17 211 -43 -2 -8 -14 -17 -28 -21
l-25 -6 25 -11 c14 -5 43 -29 65 -51 21 -23 46 -41 54 -41 8 0 28 -12 43 -27
25 -23 32 -26 48 -15 11 7 27 12 35 12 9 0 26 6 38 14 20 13 43 21 142 45 l30
7 3 96 c3 94 2 98 -23 114 -14 9 -25 21 -25 27 0 21 53 87 70 87 10 0 20 7 24
15 9 26 36 17 57 -20z"/>
</g>
</svg>
