<?xml version="1.0" standalone="no"?>
<!DOCTYPE svg PUBLIC "-//W3C//DTD SVG 20010904//EN"
 "http://www.w3.org/TR/2001/REC-SVG-20010904/DTD/svg10.dtd">
<svg version="1.0" xmlns="http://www.w3.org/2000/svg"
 width="261.000000pt" height="261.000000pt" viewBox="0 0 261.000000 261.000000"
 style="background-color: #ffffff"
 preserveAspectRatio="xMidYMid meet">
<metadata>
Created by potrace 1.10, written by Peter Selinger 2001-2011
</metadata>
<g transform="translate(0.000000,261.000000) scale(0.100000,-0.100000)"
fill="#0084ff" stroke="none">
<path d="M570 2540 c-14 -11 -31 -17 -38 -15 -8 3 -35 -13 -61 -35 -26 -22
-55 -40 -65 -40 -17 0 -78 -38 -84 -52 -2 -5 -13 -8 -24 -8 -11 0 -38 -14 -60
-31 -22 -18 -51 -33 -65 -35 -21 -2 -52 -28 -53 -44 0 -4 1760 -4 1966 0 12 0
33 11 48 25 15 14 36 25 47 25 10 0 39 20 62 45 24 25 51 45 59 45 9 0 35 18
58 40 23 22 49 40 59 40 17 0 61 39 61 53 0 4 -424 7 -942 7 -921 0 -944 -1
-968 -20z"/>
<path d="M2475 2494 c-22 -24 -48 -44 -58 -44 -9 0 -37 -20 -60 -45 -24 -25
-52 -45 -63 -45 -11 0 -38 -18 -59 -40 -21 -22 -47 -40 -56 -40 -9 0 -22 -6
-28 -13 -8 -10 -11 -313 -11 -1097 0 -596 -2 -1085 -5 -1088 -3 -3 -5 127 -5
289 0 168 -4 300 -10 309 -8 13 -133 15 -1002 18 -546 2 -1012 0 -1036 -3
l-42 -6 2 -317 3 -317 1034 -3 c735 -1 1038 1 1047 9 7 6 17 8 23 5 5 -3 38
21 73 54 34 33 70 60 78 60 8 0 33 18 55 40 22 21 49 39 60 40 11 0 46 25 78
55 l57 54 -2 1083 c-3 1208 2 1125 -73 1042z m-847 -1856 c39 -12 40 -22 2
-72 -34 -45 -97 -74 -107 -50 -7 19 -80 18 -113 -1 -14 -8 -41 -15 -60 -15
-19 0 -44 -7 -54 -15 -11 -8 -35 -15 -53 -15 -19 0 -48 -7 -64 -16 -17 -8 -47
-14 -67 -12 -32 3 -37 7 -40 29 -3 30 4 34 88 54 30 7 93 23 140 35 47 12 106
27 131 33 36 8 48 16 56 38 10 25 13 27 59 22 27 -3 64 -9 82 -15z m-741 -198
c27 0 71 -25 94 -53 16 -19 14 -22 -30 -52 -25 -17 -61 -35 -79 -38 -28 -6
-34 -3 -42 18 l-9 24 -198 4 c-250 6 -233 4 -233 31 0 32 31 36 256 36 l182 0
6 26 c5 20 10 24 19 15 6 -6 22 -11 34 -11z m741 -7 c19 -14 49 -29 66 -32 22
-5 32 -13 34 -29 3 -17 -2 -22 -21 -22 -13 0 -43 -13 -65 -30 -51 -37 -79 -38
-92 -5 l-10 25 -209 0 c-115 0 -216 3 -225 6 -19 7 -21 35 -4 52 9 9 73 12
225 12 l213 0 10 25 c12 32 34 32 78 -2z m-418 -145 c30 -7 60 -17 67 -21 6
-4 29 -9 50 -12 21 -2 56 -10 78 -18 22 -8 56 -17 76 -21 32 -6 37 -4 42 16 5
18 9 20 19 10 6 -6 22 -12 33 -12 14 0 33 -16 53 -44 45 -63 42 -73 -20 -79
-29 -3 -68 -9 -85 -12 -31 -7 -33 -5 -33 19 0 23 -9 31 -33 27 -4 -1 -21 6
-36 14 -16 8 -45 17 -64 19 -19 2 -44 9 -55 15 -12 6 -36 11 -54 11 -18 0 -42
7 -52 15 -11 8 -35 15 -54 15 -45 0 -72 16 -72 44 0 42 17 43 140 14z"/>
<path d="M42 1498 l3 -753 1040 0 1040 0 2 743 2 743 -25 9 c-16 6 -414 10
-1045 10 l-1019 0 2 -752z m1058 662 c6 -11 19 -20 28 -20 18 0 62 -50 62 -69
0 -14 -34 -31 -59 -31 -19 0 -21 -6 -23 -80 -1 -44 -2 -88 -2 -97 -1 -13 10
-20 39 -25 110 -17 147 -26 158 -37 6 -6 21 -11 33 -11 13 0 42 -19 68 -45 26
-25 53 -45 60 -45 20 0 48 -46 72 -120 23 -69 34 -79 67 -61 12 6 72 12 132
13 106 3 110 4 113 26 4 25 19 28 46 7 11 -8 29 -15 40 -15 12 -1 34 -12 51
-25 l29 -24 -24 -26 c-13 -14 -33 -25 -44 -25 -12 0 -32 -9 -46 -20 -33 -26
-48 -25 -52 3 -3 21 -8 22 -123 27 -66 3 -125 8 -132 13 -22 14 -42 -5 -59
-61 -23 -72 -53 -120 -79 -124 -33 -5 -24 -33 12 -36 19 -2 45 -16 67 -38 20
-19 41 -32 47 -28 6 3 23 -9 39 -27 27 -33 28 -34 48 -16 33 30 53 18 69 -43
23 -85 23 -85 -22 -88 -22 -1 -67 1 -100 5 -59 8 -60 9 -60 40 0 23 -11 43
-43 77 -24 26 -48 44 -53 40 -16 -10 -50 27 -43 48 7 22 -9 23 -42 2 -13 -9
-27 -14 -30 -11 -4 3 -23 -3 -42 -14 -20 -10 -47 -19 -60 -19 -13 0 -32 -5
-43 -11 -33 -17 -202 -14 -240 5 -17 9 -43 16 -56 16 -14 0 -39 10 -55 22 -42
29 -86 31 -100 4 -17 -33 -80 -96 -98 -96 -29 -1 -48 -25 -47 -60 2 -40 -14
-47 -107 -49 l-59 -1 7 53 c4 28 14 63 22 75 14 22 17 22 33 8 27 -25 43 -20
91 29 24 25 50 45 56 45 21 0 83 44 84 58 0 8 -9 27 -21 43 -12 17 -24 42 -28
57 -5 17 -15 28 -28 30 -14 2 -23 13 -27 34 -6 28 -8 30 -37 24 -17 -3 -78 -6
-135 -6 -96 0 -104 -1 -104 -19 0 -25 -18 -37 -33 -22 -6 6 -22 11 -35 11 -13
0 -41 14 -62 30 -21 17 -45 30 -55 30 -24 0 -13 23 11 25 12 1 36 13 55 27 19
14 51 29 72 32 33 6 38 4 47 -19 9 -25 11 -25 123 -25 73 0 117 -4 125 -12 9
-9 13 -8 16 3 22 62 26 68 40 63 9 -4 16 4 20 23 4 16 20 49 36 73 l29 44 -27
12 c-15 6 -33 18 -41 27 -7 9 -18 14 -23 11 -5 -4 -32 15 -59 42 -47 46 -51
48 -79 37 -28 -10 -32 -9 -47 13 -21 33 -31 124 -13 124 17 0 141 -20 158 -25
10 -4 10 -9 0 -24 -9 -15 -8 -24 6 -46 10 -15 23 -24 31 -21 21 8 117 -95 104
-111 -6 -7 -8 -17 -4 -23 9 -14 42 -13 52 3 17 28 80 65 128 75 28 6 66 15 85
19 l34 9 -3 94 c-1 52 -5 98 -7 102 -3 5 -16 8 -29 8 -13 0 -25 6 -28 13 -7
19 12 47 33 47 10 0 28 15 40 35 25 40 35 43 50 15z m650 -191 c0 -33 -22
-113 -34 -126 -9 -10 -18 -10 -43 -1 -29 11 -35 10 -56 -10 -13 -12 -30 -22
-38 -22 -9 0 -28 -13 -43 -29 -16 -16 -42 -35 -58 -42 -25 -10 -31 -9 -49 9
-18 21 -19 23 -3 47 9 14 24 25 33 25 9 0 34 17 55 39 31 32 37 44 34 72 l-3
34 58 6 c32 4 61 9 64 13 4 3 24 6 45 6 32 0 38 -3 38 -21z m-652 -841 c7 -7
12 -44 12 -95 0 -80 1 -83 23 -83 13 0 32 -6 43 -14 16 -13 17 -18 6 -33 -6
-10 -16 -28 -22 -40 -5 -13 -18 -23 -29 -23 -11 0 -26 -10 -32 -22 -12 -22
-12 -22 -44 15 -18 20 -40 37 -49 37 -17 0 -23 9 -28 45 -2 15 4 21 27 25 l30
5 3 85 c2 65 6 88 19 98 21 15 26 15 41 0z"/>
</g>
</svg>
