<?xml version="1.0" standalone="no"?>
<!DOCTYPE svg PUBLIC "-//W3C//DTD SVG 20010904//EN"
 "http://www.w3.org/TR/2001/REC-SVG-20010904/DTD/svg10.dtd">
<svg version="1.0" xmlns="http://www.w3.org/2000/svg"
 width="150.000000pt" height="150.000000pt" viewBox="0 0 150.000000 150.000000"
 style="background-color: #0084ff"
 preserveAspectRatio="xMidYMid meet">
<metadata>
Created by potrace 1.10, written by Peter Selinger 2001-2011
</metadata>
<g transform="translate(0.000000,150.000000) scale(0.100000,-0.100000)"
fill="#ffffff" stroke="none">
<path d="M319 1444 c-5 -7 -18 -10 -29 -7 -12 3 -34 -7 -58 -27 -28 -22 -46
-30 -60 -25 -15 4 -24 0 -31 -14 -6 -11 -20 -23 -31 -26 -11 -3 -20 -13 -20
-22 0 -13 13 -14 98 -8 53 3 114 11 135 16 28 7 43 7 53 -2 19 -16 50 -3 35
15 -12 14 -5 26 16 26 7 0 13 -9 13 -20 0 -28 58 -37 99 -15 26 13 34 13 45 3
9 -10 67 -13 247 -12 289 2 266 0 272 24 3 11 12 20 21 20 18 0 21 -16 5 -26
-17 -10 10 -24 47 -24 22 0 43 11 75 40 24 22 52 40 61 40 24 0 78 33 75 45
-5 15 -1056 14 -1068 -1z"/>
<path d="M1380 1388 c-19 -22 -36 -45 -38 -50 -2 -4 -14 -8 -26 -8 -56 0 -55
15 -59 -620 -2 -322 -7 -595 -11 -608 -8 -21 -10 -22 -26 -7 -15 14 -18 14
-30 0 -17 -20 -30 -10 -30 24 0 44 -20 64 -52 52 -14 -5 -29 -15 -33 -20 -9
-15 -45 -14 -45 2 0 7 4 17 9 22 4 6 11 27 14 47 4 27 2 38 -9 42 -24 9 -14
61 11 61 17 0 20 -6 17 -34 -2 -30 0 -33 20 -28 12 4 28 1 35 -5 15 -13 20 -3
26 64 l5 48 -99 0 -98 0 -3 -32 c-2 -28 -7 -33 -28 -34 -14 0 -30 -3 -35 -6
-6 -3 -39 -9 -75 -13 -36 -4 -70 -11 -75 -15 -6 -5 -27 -10 -48 -12 -21 -2
-38 -7 -40 -13 -4 -18 190 -18 225 0 34 17 68 20 68 6 0 -5 9 -11 20 -14 31
-8 24 -42 -13 -62 -31 -16 -35 -16 -65 -1 -36 18 -248 24 -237 6 3 -5 17 -10
29 -10 13 0 37 -7 52 -15 16 -8 43 -15 61 -15 17 0 35 -5 38 -10 4 -7 12 -7
25 0 13 7 21 7 25 0 3 -5 19 -10 35 -10 23 0 31 -5 36 -24 3 -14 3 -30 -1 -35
-10 -17 -101 -13 -115 4 -7 8 -23 15 -35 15 -12 0 -39 7 -58 15 -20 8 -51 15
-69 15 -18 0 -41 7 -51 14 -18 14 -23 41 -8 50 5 3 5 25 0 48 -4 24 -8 49 -9
56 0 12 41 34 70 36 40 3 137 31 150 42 29 27 -5 32 -175 22 -93 -5 -272 -8
-396 -6 l-227 3 -4 -165 c-3 -91 -3 -169 -1 -175 2 -7 208 -10 591 -10 l587 1
41 26 c23 15 44 33 47 40 4 10 7 10 17 1 11 -10 22 -3 58 35 25 26 54 47 64
47 19 0 20 14 21 627 2 625 2 628 -18 628 -12 0 -36 -18 -55 -42z m-10 -133
c0 -8 -7 -15 -15 -15 -8 0 -15 7 -15 15 0 8 7 15 15 15 8 0 15 -7 15 -15z m50
-107 c0 -91 -3 -119 -11 -111 -22 22 -16 233 6 233 3 0 5 -55 5 -122z m-76 65
c13 -47 25 -137 19 -147 -4 -6 -8 -42 -9 -81 -2 -111 -3 -113 -25 -120 -11 -4
-23 -5 -25 -2 -3 3 -9 65 -14 138 -7 126 -7 137 13 182 23 50 33 57 41 30z
m76 -347 c0 -93 -4 -157 -10 -161 -6 -4 -11 24 -11 77 -1 46 -2 112 -3 148 -2
71 2 90 15 90 5 0 9 -69 9 -154z m-68 -89 c14 -37 16 -53 7 -69 -6 -12 -8 -36
-4 -57 4 -20 8 -61 9 -92 2 -31 6 -61 10 -67 3 -6 -4 -18 -16 -27 -15 -10 -19
-18 -12 -23 18 -12 25 -42 14 -62 -8 -15 -6 -21 7 -29 17 -9 16 -11 -5 -33
-12 -14 -22 -29 -22 -35 0 -18 -30 -37 -41 -26 -11 11 -13 445 -3 524 9 64 31
63 56 -4z m68 -233 c0 -24 -4 -44 -10 -44 -5 0 -10 23 -10 51 0 31 4 48 10 44
6 -3 10 -26 10 -51z m0 -209 c0 -25 -2 -45 -5 -45 -11 0 -24 49 -18 69 9 37
23 23 23 -24z m-1335 -15 c8 -24 26 -25 67 -4 20 10 42 14 64 9 28 -5 34 -10
34 -30 0 -14 -5 -25 -11 -25 -17 0 -48 -43 -49 -67 0 -13 8 -31 19 -42 10 -10
21 -30 25 -45 6 -23 3 -26 -18 -26 -13 0 -43 9 -68 20 -24 10 -54 17 -66 13
-22 -5 -22 -4 -22 106 0 103 10 139 25 91z m435 -64 c6 -8 24 -16 38 -18 34
-4 38 -41 5 -46 -12 -2 -27 -10 -33 -18 -16 -18 -49 -18 -69 0 -13 11 -37 12
-116 6 -108 -9 -125 -4 -125 36 0 24 0 24 124 24 101 0 125 3 130 15 7 19 30
19 46 1z"/>
<path d="M88 233 c-3 -10 -3 -35 0 -56 3 -28 8 -37 20 -35 23 4 24 73 2 93
-16 14 -18 14 -22 -2z"/>
<path d="M29 1284 c-2 -18 2 -848 4 -850 1 -1 25 2 52 8 54 10 341 11 440 1
33 -4 74 -6 90 -6 17 1 145 3 285 5 l255 5 -2 24 c-1 13 -3 59 -4 101 -1 43
-6 78 -11 78 -4 0 -8 -13 -8 -29 0 -21 -6 -30 -22 -35 l-23 -7 23 -16 c40 -28
23 -83 -27 -83 -27 0 -91 21 -91 30 0 3 14 14 30 25 16 11 30 27 30 36 0 9 9
19 21 22 20 5 19 7 -10 66 -36 71 -38 81 -11 81 13 0 20 -7 20 -20 0 -21 33
-60 51 -60 7 0 8 7 4 18 -4 9 -10 26 -13 37 -5 17 -3 18 11 7 13 -11 17 -10
26 7 6 11 11 38 11 60 0 22 4 42 8 45 5 3 2 38 -5 78 -7 40 -15 93 -18 118
l-5 45 -41 -1 c-36 0 -40 2 -37 21 1 12 -3 29 -10 37 -10 12 -9 18 3 28 22 18
18 30 -8 30 -21 0 -57 27 -57 42 0 3 20 6 44 6 37 1 45 -2 54 -23 16 -36 50
-33 63 5 8 20 18 30 32 31 22 0 22 0 0 9 -13 5 -265 11 -560 14 -296 2 -550 7
-565 11 -16 4 -28 3 -29 -1z m630 -66 c11 -30 12 -31 25 -12 17 22 24 18 28
-17 3 -21 -1 -24 -27 -24 -28 0 -30 -3 -36 -43 -6 -48 -20 -67 -43 -59 -10 4
-16 19 -16 41 0 55 -8 66 -41 59 -30 -6 -33 -2 -23 35 6 21 34 32 34 12 0 -5
5 -10 10 -10 6 0 10 6 10 13 0 20 21 37 46 37 16 0 25 -9 33 -32z m178 24 c6
-4 17 -21 23 -37 11 -29 11 -29 -9 -11 -14 13 -29 17 -50 13 -29 -6 -62 15
-47 30 4 4 11 1 17 -7 8 -13 11 -13 20 3 11 18 27 21 46 9z m-427 -14 c15 -9
25 -10 38 -2 9 6 23 9 30 7 23 -8 12 -38 -18 -52 -26 -11 -33 -11 -47 1 -26
20 -53 47 -53 53 0 9 30 5 50 -7z m-226 -14 c20 -8 21 -44 2 -69 -12 -16 -19
-18 -43 -10 -36 13 -42 47 -11 69 25 18 29 19 52 10z m-100 -60 c4 -14 4 -45
0 -69 -3 -23 -2 -45 3 -48 6 -4 26 3 46 13 20 11 41 20 46 20 15 0 23 -38 15
-73 -6 -31 -7 -31 -15 -8 -7 18 -14 22 -31 18 -12 -3 -29 -2 -39 4 -11 6 -20
5 -24 -1 -17 -27 -25 -2 -25 80 0 88 11 117 24 64z m172 -3 c5 -6 29 -11 54
-13 36 -2 45 -7 50 -25 3 -12 16 -34 30 -50 14 -15 27 -37 30 -48 8 -29 31
-29 63 1 27 25 34 26 137 26 96 1 112 -2 136 -21 31 -24 64 -28 64 -6 0 8 13
28 29 44 20 20 28 37 24 50 -4 15 1 21 18 25 128 26 124 27 122 -9 -3 -45 -34
-79 -74 -83 -19 -2 -42 -12 -52 -23 -10 -10 -27 -19 -37 -19 -25 0 -25 -4 8
-65 l28 -50 84 4 c55 2 91 8 101 17 14 13 20 11 48 -15 39 -37 39 -51 -3 -77
-28 -18 -36 -19 -47 -9 -9 8 -48 15 -103 17 l-89 3 -10 -30 c-5 -16 -17 -39
-26 -49 -10 -12 -12 -20 -5 -23 6 -2 26 -15 44 -28 18 -13 37 -22 41 -19 13 8
67 -24 79 -45 12 -24 13 -68 1 -75 -5 -4 -22 -1 -38 5 -15 7 -39 12 -52 13
-18 1 -27 9 -32 28 -4 15 -15 35 -24 44 -9 9 -23 27 -32 40 -18 28 -35 30 -67
9 -13 -9 -43 -19 -67 -23 l-44 -8 3 -45 c4 -77 9 -88 39 -86 19 1 28 -3 31
-16 3 -15 -2 -18 -25 -15 -21 2 -30 -2 -38 -19 -13 -30 -61 -32 -70 -4 -4 14
-14 19 -33 18 -21 -2 -27 2 -27 18 0 16 6 20 27 18 24 -1 28 3 33 33 3 19 7
50 10 69 6 34 5 35 -27 35 -18 0 -50 9 -71 20 -20 11 -43 20 -50 20 -13 0 -87
-92 -87 -109 0 -24 -34 -41 -81 -41 -48 0 -49 1 -49 30 0 46 27 81 56 74 16
-4 37 4 71 27 26 19 50 35 52 36 2 1 -3 13 -11 25 -8 13 -18 36 -22 51 l-7 29
-76 -6 c-43 -3 -81 -10 -87 -16 -29 -29 -119 12 -109 51 9 33 66 55 106 42 17
-6 62 -14 99 -18 l67 -7 7 29 c4 15 14 38 21 50 15 22 11 43 -9 43 -5 0 -24
12 -41 26 -20 16 -39 24 -53 21 -27 -5 -62 27 -65 58 -5 50 5 67 27 46z m818
-120 c7 -10 -42 -57 -50 -48 -4 4 1 9 10 13 9 3 16 15 16 25 0 19 15 26 24 10z
m-974 -60 c0 -5 -7 -12 -16 -15 -22 -9 -24 -8 -24 9 0 8 9 15 20 15 11 0 20
-4 20 -9z m110 -233 c-1 -7 -7 -24 -15 -38 -8 -14 -14 -51 -15 -82 0 -46 5
-62 25 -86 30 -36 31 -49 5 -57 -30 -10 -57 3 -81 37 -18 25 -20 34 -11 49 16
25 15 51 -3 75 -14 19 -15 18 -35 -6 l-20 -25 0 63 c0 35 4 62 10 62 6 0 10
-9 10 -19 0 -30 17 -34 58 -14 25 12 36 24 34 36 -2 11 4 17 18 17 11 0 20 -6
20 -12z m-130 -190 c0 -10 -4 -18 -10 -18 -5 0 -10 15 -10 33 0 24 3 28 10 17
5 -8 10 -23 10 -32z m400 26 c0 -4 -5 -24 -12 -45 -10 -35 -15 -39 -43 -39
-56 0 -55 26 4 65 36 25 51 30 51 19z m330 -30 c0 -28 3 -34 13 -26 14 12 67
4 67 -9 0 -5 -13 -9 -29 -9 -17 0 -32 -4 -36 -10 -4 -6 -15 -5 -30 2 -40 18
-44 88 -4 88 15 0 19 -7 19 -36z"/>
<path d="M1097 1154 c-11 -11 3 -24 24 -24 12 0 19 5 17 13 -5 14 -31 21 -41
11z"/>
</g>
</svg>
