<?xml version="1.0" standalone="no"?>
<!DOCTYPE svg PUBLIC "-//W3C//DTD SVG 20010904//EN"
 "http://www.w3.org/TR/2001/REC-SVG-20010904/DTD/svg10.dtd">
<svg version="1.0" xmlns="http://www.w3.org/2000/svg"
 width="231.000000pt" height="231.000000pt" viewBox="0 0 231.000000 231.000000"
 style="background-color: #0084ff"
 preserveAspectRatio="xMidYMid meet">
<metadata>
Created by potrace 1.10, written by Peter Selinger 2001-2011
</metadata>
<g transform="translate(0.000000,231.000000) scale(0.100000,-0.100000)"
fill="#ffffff" stroke="none">
<path d="M865 1869 c-27 -5 -84 -13 -125 -19 -107 -13 -212 -35 -237 -48 -12
-7 -35 -12 -50 -12 -16 0 -34 -5 -40 -11 -6 -6 -26 -14 -44 -19 -55 -14 -101
-33 -161 -68 -67 -38 -158 -121 -158 -144 0 -8 -7 -21 -15 -28 -22 -18 -19
-92 7 -141 21 -40 140 -149 164 -149 6 0 17 -7 24 -15 7 -8 20 -15 30 -15 10
0 23 -7 30 -15 7 -8 25 -15 40 -15 15 0 33 -7 40 -15 7 -8 27 -15 45 -15 18 0
38 -7 45 -15 8 -9 29 -15 56 -15 23 0 49 -6 56 -13 7 -8 41 -17 76 -21 l62 -7
0 44 c0 23 -5 48 -11 54 -6 6 -9 26 -7 44 2 27 8 35 27 37 13 2 35 -2 47 -9
35 -18 51 -7 201 133 l31 30 49 -15 c26 -9 64 -15 83 -14 29 2 36 -2 38 -20 2
-17 -7 -29 -40 -49 -59 -38 -138 -106 -138 -121 0 -7 17 -15 38 -19 49 -9 55
-13 42 -30 -7 -7 -28 -13 -48 -12 -45 2 -226 -28 -265 -44 -73 -29 -21 -33
379 -31 343 1 403 3 429 17 17 9 55 16 90 16 37 0 68 6 79 15 11 8 37 15 59
15 21 0 45 7 53 15 9 8 31 15 49 15 19 0 36 4 40 9 3 5 19 12 35 16 68 15 238
124 261 167 7 13 18 29 26 36 8 9 13 39 13 86 0 64 -3 78 -29 113 -39 54 -101
101 -191 143 -25 12 -56 27 -70 35 -14 7 -40 16 -57 20 -18 3 -35 11 -38 16
-4 5 -18 9 -33 9 -15 1 -38 7 -52 15 -14 8 -39 14 -56 15 -17 0 -50 6 -72 14
-80 28 -289 46 -527 45 -127 -1 -252 -5 -280 -10z m719 -81 c3 -13 7 -41 10
-63 3 -22 7 -49 8 -60 3 -18 -3 -20 -64 -20 -49 0 -71 -4 -80 -16 -7 -8 -40
-38 -73 -66 l-60 -50 -98 3 c-55 1 -101 5 -104 8 -3 3 0 13 8 22 17 20 125 94
137 94 10 0 22 23 22 41 0 5 -11 9 -24 9 -35 0 -56 10 -56 26 0 8 3 14 8 15 4
0 27 2 52 3 25 2 65 9 90 15 70 19 152 42 180 51 38 12 39 12 44 -12z m-466
-30 c28 -28 -2 -128 -47 -155 -22 -13 -17 -17 -127 98 -24 24 -24 26 -7 42 11
10 41 17 78 20 33 2 67 4 76 5 8 1 20 -3 27 -10z m743 -98 c104 -35 136 -50
197 -93 39 -28 79 -84 67 -95 -2 -3 -30 3 -60 13 -31 9 -68 15 -82 12 -15 -3
-34 -1 -42 3 -9 4 -52 15 -96 25 -105 21 -162 42 -169 62 -12 30 48 102 86
103 4 0 49 -14 99 -30z m-1451 -10 c10 -6 41 -10 68 -10 27 0 71 -7 98 -15 27
-8 64 -15 82 -15 19 0 63 -8 98 -17 l64 -17 28 33 c26 31 30 33 50 20 12 -8
22 -17 22 -21 0 -3 16 -30 35 -60 20 -29 34 -60 33 -68 -2 -10 -21 -17 -53
-22 -77 -10 -156 -29 -197 -45 -73 -30 -161 -12 -94 19 54 24 27 35 -135 57
-36 4 -88 13 -115 19 -27 6 -93 17 -147 25 -54 8 -101 18 -105 21 -7 7 47 55
63 56 6 0 26 14 45 31 32 27 39 29 89 24 29 -3 61 -10 71 -15z m1240 -169 c0
-11 -5 -23 -12 -27 -17 -11 18 -22 72 -23 25 -1 67 -8 94 -16 27 -8 69 -15 92
-15 24 0 64 -7 90 -16 25 -8 67 -15 92 -14 66 2 72 1 72 -12 0 -13 -45 -55
-100 -93 -37 -26 -39 -26 -121 -15 -46 6 -91 16 -100 21 -10 5 -35 9 -57 9
-22 0 -56 7 -75 15 -20 8 -49 15 -64 15 -15 0 -58 8 -96 17 -67 17 -67 17 -82
-4 -26 -37 -46 -53 -66 -53 -14 0 -19 7 -19 29 0 16 -7 34 -15 41 -8 7 -15 20
-15 30 0 10 -7 23 -15 30 -8 7 -15 16 -15 20 0 13 50 30 108 36 31 3 69 10 83
15 23 9 99 24 137 28 6 0 12 -8 12 -18z m-1335 -77 c44 -8 108 -18 143 -21 41
-3 65 -10 69 -19 3 -8 17 -14 30 -14 15 0 36 -11 50 -26 22 -24 23 -29 11 -60
-7 -19 -22 -44 -35 -56 -20 -19 -27 -20 -70 -10 -113 24 -171 45 -222 80 -30
20 -69 47 -87 60 -19 12 -34 28 -34 35 0 6 -3 23 -7 36 -7 27 -12 27 152 -5z
m970 -139 c20 -13 51 -38 68 -55 31 -30 82 -41 102 -21 6 5 30 11 55 13 38 3
45 0 42 -14 -3 -19 13 -24 23 -8 9 15 35 12 35 -4 0 -16 -29 -29 -70 -32 -14
-1 -56 -4 -94 -7 -38 -3 -72 -11 -77 -18 -4 -7 -14 -9 -23 -6 -9 4 -26 1 -36
-5 -15 -10 -22 -10 -32 0 -6 6 -28 12 -47 12 -41 0 -53 7 -68 34 -8 15 -6 27
9 51 19 34 63 85 72 85 3 0 21 -11 41 -25z"/>
<path d="M22 1033 c0 -237 2 -283 17 -313 16 -35 94 -120 121 -133 8 -4 29
-16 45 -27 37 -23 114 -60 127 -60 6 0 22 -6 36 -14 43 -22 200 -63 292 -77
30 -4 73 -12 95 -18 22 -5 126 -15 230 -21 156 -9 225 -8 388 4 109 9 203 19
209 22 6 4 38 10 72 15 33 4 81 13 106 19 42 12 66 20 150 50 19 7 47 15 62
17 15 3 33 11 39 19 6 8 19 14 29 14 10 0 23 7 30 15 7 8 20 15 30 15 10 0 20
7 24 15 3 8 11 15 18 15 18 0 87 63 106 97 13 23 16 72 17 283 1 140 5 270 9
288 7 26 6 32 -8 32 -9 0 -19 -7 -22 -14 -8 -20 -110 -96 -129 -96 -8 0 -15
-4 -15 -10 0 -5 -12 -13 -27 -16 -15 -4 -34 -13 -41 -21 -7 -7 -22 -13 -31
-13 -10 0 -24 -7 -31 -15 -7 -8 -26 -15 -42 -15 -16 0 -36 -7 -44 -15 -9 -8
-31 -15 -50 -15 -20 0 -42 -7 -50 -15 -10 -9 -35 -15 -67 -15 -29 -1 -63 -7
-77 -15 -16 -9 -55 -14 -105 -15 -51 0 -86 -5 -94 -12 -16 -17 -551 -19 -572
-2 -8 6 -57 14 -109 18 -52 3 -99 11 -104 16 -6 6 -33 10 -61 10 -30 0 -59 6
-71 15 -10 8 -36 15 -56 15 -20 0 -43 7 -52 15 -8 8 -28 15 -44 15 -16 0 -35
7 -42 15 -7 8 -23 15 -35 15 -12 0 -28 7 -35 15 -7 8 -21 15 -32 15 -10 0 -21
7 -24 15 -4 8 -14 15 -24 15 -11 0 -49 29 -85 65 -37 36 -68 65 -70 65 -2 0
-3 -125 -3 -277z m243 17 c33 -16 78 -32 100 -35 22 -4 45 -12 51 -17 7 -5 45
-15 85 -24 92 -19 134 -29 179 -43 113 -36 569 -42 805 -11 211 27 357 59 440
95 17 8 46 17 65 21 19 3 44 11 55 17 32 18 88 37 111 37 33 0 44 -20 44 -81
0 -37 4 -59 12 -62 10 -3 10 -7 2 -18 -6 -8 -14 -37 -16 -65 -3 -32 -14 -62
-29 -83 -39 -53 -97 -111 -112 -111 -7 0 -35 -14 -63 -32 -27 -18 -54 -31 -61
-30 -7 2 -29 -6 -50 -16 -81 -41 -297 -84 -513 -103 -123 -11 -463 -4 -570 11
-209 30 -371 75 -472 131 -10 5 -26 9 -35 9 -27 0 -175 143 -168 162 4 9 0 32
-9 51 -12 29 -12 42 -3 67 10 25 9 33 -3 40 -10 7 -11 10 -2 10 15 0 16 36 1
45 -7 5 -5 13 6 25 9 9 13 24 9 34 -6 15 -1 16 37 10 24 -4 71 -19 104 -34z"/>
</g>
</svg>
