<?xml version="1.0" standalone="no"?>
<!DOCTYPE svg PUBLIC "-//W3C//DTD SVG 20010904//EN"
 "http://www.w3.org/TR/2001/REC-SVG-20010904/DTD/svg10.dtd">
<svg version="1.0" xmlns="http://www.w3.org/2000/svg"
 width="237.000000pt" height="237.000000pt" viewBox="0 0 237.000000 237.000000"
 style="background-color: #ffffff"
 preserveAspectRatio="xMidYMid meet">
<metadata>
Created by potrace 1.10, written by Peter Selinger 2001-2011
</metadata>
<g transform="translate(0.000000,237.000000) scale(0.100000,-0.100000)"
fill="#0084ff" stroke="none">
<path d="M835 2253 c-138 -18 -161 -24 -157 -45 2 -13 -8 -18 -45 -23 -26 -3
-68 -12 -93 -19 -25 -8 -57 -17 -72 -20 -19 -4 -28 -13 -28 -26 0 -13 -10 -22
-32 -29 -84 -25 -113 -40 -118 -60 -3 -11 -25 -31 -50 -44 -25 -13 -47 -33
-50 -44 -3 -12 -18 -32 -35 -44 -37 -29 -44 -39 -39 -54 3 -6 -4 -20 -16 -30
-11 -10 -20 -24 -20 -30 0 -7 -7 -19 -16 -26 -26 -21 -15 -203 14 -253 12 -21
22 -43 22 -50 0 -7 13 -25 30 -41 16 -16 30 -36 30 -45 0 -16 40 -51 72 -63 9
-3 18 -16 20 -29 2 -15 11 -24 25 -26 12 -2 27 -10 33 -18 7 -8 21 -14 30 -14
10 0 31 -6 47 -14 15 -8 42 -18 58 -23 17 -5 29 -15 27 -23 -4 -18 17 -30 54
-30 16 0 39 -7 50 -15 10 -8 35 -15 54 -15 74 -1 109 -11 112 -34 3 -20 11
-22 121 -28 65 -4 126 -12 135 -17 25 -12 347 -14 370 -2 11 6 64 13 118 16
129 8 145 12 142 32 -4 20 28 31 93 32 25 1 50 6 56 12 5 5 32 13 59 17 38 6
50 12 53 27 4 25 19 35 52 35 15 0 32 7 39 15 7 8 23 15 35 15 12 0 28 6 35
14 6 8 21 16 33 18 12 2 23 12 27 26 5 21 17 31 78 63 12 7 21 18 18 26 -3 7
10 28 29 46 19 19 35 41 35 50 0 8 6 28 14 44 24 48 39 131 30 171 -11 51 -12
54 -13 78 0 11 -15 34 -31 51 -18 18 -28 37 -24 46 3 10 -8 25 -30 44 -20 15
-36 36 -36 45 0 16 -27 36 -82 59 -17 6 -28 19 -28 30 0 11 -8 22 -17 25 -10
3 -29 11 -43 19 -14 7 -40 16 -58 20 -21 4 -32 12 -28 20 6 17 -13 35 -38 35
-11 0 -38 6 -61 14 -22 8 -62 18 -88 21 -37 5 -47 10 -45 23 3 19 -13 24 -182
47 -145 19 -518 18 -675 -2z m780 -105 c3 -13 5 -70 3 -128 l-3 -105 -50 0
c-38 0 -58 -6 -83 -25 -18 -13 -31 -29 -28 -35 6 -16 -2 -25 -50 -63 -37 -28
-49 -32 -105 -32 -35 0 -74 3 -86 6 -29 8 -30 40 -3 54 11 6 20 19 20 29 0 10
18 31 40 46 33 23 40 34 40 60 0 24 -6 34 -25 43 -37 17 -33 49 8 57 17 4 55
13 82 20 28 8 62 17 78 20 18 4 27 12 27 24 0 21 19 31 58 31 15 0 34 5 42 10
23 15 29 12 35 -12z m-1222 -184 c27 -5 37 -12 37 -25 0 -20 14 -25 95 -33 28
-2 75 -9 105 -15 30 -6 77 -14 103 -17 36 -4 47 -9 45 -21 -2 -11 8 -19 31
-25 42 -12 61 -4 61 23 0 12 8 27 17 34 24 18 63 -1 63 -31 0 -13 14 -43 30
-67 17 -26 30 -58 30 -76 0 -32 0 -33 -82 -46 -29 -4 -38 -11 -38 -25 0 -14
-9 -21 -37 -25 -21 -3 -66 -13 -100 -22 -34 -9 -69 -13 -79 -9 -15 6 -15 9 5
30 23 25 20 52 -7 60 -64 16 -115 26 -165 31 -50 6 -57 9 -52 25 5 16 -2 19
-52 25 -53 5 -178 30 -212 41 -11 4 -11 8 3 22 9 10 16 25 16 34 0 8 18 28 40
43 22 15 40 35 40 45 0 31 23 37 103 24z m1280 -306 c-2 -36 -1 -37 35 -43 20
-3 75 -12 122 -20 47 -8 106 -17 133 -21 37 -4 47 -9 47 -23 0 -21 26 -31 82
-31 20 0 43 -3 52 -6 25 -10 8 -65 -33 -102 -20 -18 -35 -39 -33 -47 5 -25
-40 -35 -110 -25 -34 5 -69 10 -77 10 -8 0 -11 6 -7 15 7 19 -30 35 -78 35
-19 0 -53 7 -76 15 -23 8 -59 15 -79 15 -58 0 -82 10 -76 30 4 14 -2 19 -31
23 -43 7 -54 3 -54 -21 0 -21 -49 -64 -69 -60 -11 2 -17 17 -19 45 -2 23 -10
47 -18 53 -7 7 -14 27 -14 44 0 18 -5 37 -11 43 -8 8 -3 16 20 27 19 10 28 21
25 30 -4 11 7 16 43 21 26 3 73 13 103 20 30 8 71 13 90 12 34 -2 35 -3 33
-39z m-615 -105 c-3 -19 27 -30 84 -32 40 -1 57 -16 39 -34 -6 -6 -11 -19 -11
-29 0 -9 -16 -30 -35 -45 -19 -15 -35 -36 -35 -45 0 -9 -15 -29 -33 -45 -26
-22 -33 -35 -33 -63 1 -27 6 -35 24 -40 39 -9 28 -25 -21 -32 -55 -8 -68 -14
-61 -33 4 -10 -9 -15 -53 -20 -32 -4 -81 -13 -110 -21 -28 -8 -55 -14 -61 -14
-5 0 -12 48 -16 106 -9 125 -2 142 51 123 39 -13 71 1 84 39 5 15 25 38 45 51
19 14 33 30 30 37 -6 14 13 36 50 61 13 8 24 24 24 34 0 12 7 19 20 19 14 0
20 -6 18 -17z"/>
<path d="M2312 1462 c-1 -13 -15 -35 -32 -49 -16 -13 -30 -33 -30 -42 0 -19
-34 -54 -63 -64 -10 -4 -17 -14 -15 -24 2 -10 -7 -22 -20 -29 -13 -6 -29 -17
-35 -23 -6 -6 -21 -11 -33 -11 -12 0 -24 -6 -27 -14 -3 -8 -18 -16 -34 -18
-18 -2 -29 -10 -32 -23 -4 -25 -19 -35 -51 -35 -14 0 -34 -7 -44 -15 -11 -8
-35 -15 -54 -15 -26 0 -35 -5 -39 -21 -7 -26 -41 -39 -102 -39 -26 0 -53 -6
-59 -12 -8 -9 -57 -15 -135 -18 -114 -5 -122 -6 -122 -25 0 -19 -8 -20 -202
-23 l-202 -2 -3 22 c-3 22 -8 23 -103 26 -55 1 -121 9 -147 17 -26 8 -62 15
-80 15 -53 0 -77 10 -80 34 -2 17 -12 22 -50 26 -27 3 -53 11 -60 18 -7 7 -23
12 -37 12 -33 0 -48 10 -52 35 -3 13 -14 21 -31 23 -15 2 -32 10 -38 18 -7 8
-21 14 -31 14 -10 0 -21 5 -24 11 -4 5 -18 14 -31 19 -14 6 -24 18 -24 28 0
11 -17 31 -40 47 -22 15 -40 36 -40 46 0 21 -44 72 -53 62 -4 -3 -7 -193 -7
-421 l0 -414 30 -44 c16 -24 27 -50 25 -57 -3 -6 11 -25 30 -41 21 -17 35 -39
35 -52 0 -12 8 -25 18 -28 43 -16 72 -39 72 -56 0 -19 52 -48 113 -63 18 -5
27 -14 27 -28 0 -11 6 -21 13 -23 6 -2 37 -10 67 -19 30 -9 72 -19 93 -22 28
-4 37 -10 33 -20 -3 -8 -1 -17 4 -20 22 -14 186 -37 333 -47 135 -9 157 -13
155 -27 -3 -14 10 -16 87 -16 78 0 90 2 87 16 -2 14 15 18 125 23 71 4 164 13
208 21 44 8 97 17 118 20 27 4 37 11 37 24 0 20 19 31 51 31 10 0 48 10 84 21
49 16 65 26 65 40 0 12 10 21 28 25 15 4 38 13 52 20 14 7 33 15 43 18 9 3 17
15 17 26 0 12 10 25 23 31 56 25 77 41 77 58 0 9 16 32 35 51 19 18 32 37 28
43 -3 5 5 22 17 39 35 47 41 130 38 548 -2 217 -4 385 -6 372z"/>
</g>
</svg>
