<?xml version="1.0" standalone="no"?>
<!DOCTYPE svg PUBLIC "-//W3C//DTD SVG 20010904//EN"
 "http://www.w3.org/TR/2001/REC-SVG-20010904/DTD/svg10.dtd">
<svg version="1.0" xmlns="http://www.w3.org/2000/svg"
 width="177.000000pt" height="177.000000pt" viewBox="0 0 177.000000 177.000000"
 style="background-color: #ffffff"
 preserveAspectRatio="xMidYMid meet">
<metadata>
Created by potrace 1.10, written by Peter Selinger 2001-2011
</metadata>
<g transform="translate(0.000000,177.000000) scale(0.100000,-0.100000)"
fill="#0084ff" stroke="none">
<path d="M440 1685 c-7 -8 -20 -15 -29 -15 -9 0 -37 -20 -61 -45 -24 -25 -51
-45 -60 -45 -9 0 -36 -20 -60 -45 -24 -25 -51 -45 -60 -45 -16 0 -60 -39 -60
-53 0 -11 1198 -8 1205 3 3 6 14 10 24 10 9 0 37 20 61 45 24 25 49 44 56 42
6 -1 35 19 63 46 29 26 56 45 61 42 9 -6 70 51 70 66 0 5 -240 9 -599 9 -520
0 -600 -2 -611 -15z"/>
<path d="M1640 1625 c-20 -25 -44 -44 -55 -44 -12 -1 -41 -21 -65 -46 -24 -25
-51 -45 -60 -45 -8 0 -33 -17 -55 -38 l-40 -37 -3 -653 c-2 -574 -1 -653 13
-658 9 -4 25 6 41 26 16 18 33 29 41 26 9 -4 31 11 56 39 23 25 52 47 64 50
11 2 40 24 64 50 23 25 48 44 55 41 33 -13 34 18 32 675 l-3 654 -25 2 c-19 2
-34 -8 -60 -42z"/>
<path d="M74 1387 c-2 -7 -3 -87 -2 -177 l3 -165 595 -3 c327 -1 605 0 618 3
22 5 22 7 22 174 0 145 -2 170 -16 175 -9 3 -285 6 -615 6 -480 0 -601 -3
-605 -13z"/>
<path d="M77 1003 c-10 -10 -8 -372 2 -391 8 -16 56 -17 600 -16 556 1 592 2
611 19 19 17 20 31 20 200 0 158 -2 184 -16 189 -21 8 -1209 8 -1217 -1z m931
-195 l-3 -143 -340 0 -340 0 -3 143 -3 142 346 0 346 0 -3 -142z"/>
<path d="M357 913 c-13 -12 -8 -211 5 -219 15 -10 561 -9 576 0 8 5 12 44 12
117 l0 109 -293 0 c-162 0 -297 -3 -300 -7z m473 -68 c0 -13 -26 -15 -174 -15
-159 0 -198 5 -179 24 3 3 84 6 180 6 147 0 173 -2 173 -15z m-12 -82 c3 -10
-35 -13 -167 -13 -140 0 -171 3 -171 14 0 19 331 18 338 -1z"/>
<path d="M82 558 c-17 -17 -17 -489 0 -506 15 -15 1184 -17 1208 -2 13 8 15
50 18 255 l3 245 -26 10 c-41 15 -1188 13 -1203 -2z"/>
</g>
</svg>
