<?xml version="1.0" standalone="no"?>
<!DOCTYPE svg PUBLIC "-//W3C//DTD SVG 20010904//EN"
 "http://www.w3.org/TR/2001/REC-SVG-20010904/DTD/svg10.dtd">
<svg version="1.0" xmlns="http://www.w3.org/2000/svg"
 width="252.000000pt" height="252.000000pt" viewBox="0 0 252.000000 252.000000"
 style="background-color: #ffffff"
 preserveAspectRatio="xMidYMid meet">
<metadata>
Created by potrace 1.10, written by Peter Selinger 2001-2011
</metadata>
<g transform="translate(0.000000,252.000000) scale(0.100000,-0.100000)"
fill="#0084ff" stroke="none">
<path d="M987 2419 c-15 -16 -32 -27 -38 -23 -6 4 -26 -10 -44 -31 -19 -20
-38 -34 -44 -31 -5 4 -25 -10 -45 -30 -19 -20 -39 -33 -45 -30 -5 3 -23 -7
-39 -24 -17 -16 -39 -30 -50 -30 -21 0 -46 -23 -35 -33 11 -12 1351 -8 1358 3
3 6 14 10 24 10 9 0 30 14 46 30 16 17 36 30 45 30 9 0 29 14 45 30 16 17 34
28 41 26 6 -2 27 11 45 30 18 19 39 32 47 29 14 -5 72 46 72 64 0 8 -200 11
-677 11 l-678 0 -28 -31z"/>
<path d="M2417 2405 c-4 -8 -15 -15 -25 -15 -10 0 -29 -13 -42 -30 -14 -16
-34 -29 -46 -30 -11 0 -33 -13 -49 -30 -16 -16 -36 -30 -45 -30 -9 0 -29 -13
-45 -30 -16 -16 -36 -30 -46 -30 -9 0 -29 -14 -43 -31 l-26 -31 0 -213 c0
-118 4 -225 10 -239 8 -22 16 -26 48 -26 21 0 47 -7 58 -15 10 -8 29 -15 41
-15 13 0 34 -14 50 -35 15 -19 36 -35 46 -35 16 0 17 -16 15 -237 -3 -219 -4
-238 -20 -235 -11 2 -20 -6 -24 -22 -7 -28 -35 -49 -79 -60 -16 -4 -36 -13
-44 -19 -7 -6 -29 -13 -49 -14 -19 -1 -39 -8 -43 -15 -5 -7 -9 -206 -9 -441 0
-385 2 -428 16 -434 10 -4 20 0 26 10 5 10 18 17 29 17 11 0 32 14 46 30 13
17 33 30 42 30 10 0 30 14 46 30 17 17 35 28 44 25 8 -3 27 9 46 31 18 20 38
34 43 30 6 -4 22 6 36 21 l26 28 -2 1034 c-2 756 -6 1035 -14 1038 -6 2 -14
-3 -17 -12z"/>
<path d="M593 2143 c-13 -2 -23 -10 -23 -16 0 -16 66 -37 78 -25 5 5 63 7 128
4 329 -14 389 -18 406 -27 10 -5 47 -12 83 -16 36 -3 70 -12 76 -19 6 -8 26
-14 43 -14 21 0 42 -10 65 -30 18 -17 36 -28 40 -26 4 3 13 1 21 -4 10 -6 13
-36 13 -119 0 -132 -22 -118 192 -125 83 -2 164 -10 181 -17 18 -7 45 -9 67
-5 l38 7 -2 207 c0 125 -5 212 -11 220 -8 9 -158 12 -692 11 -374 -1 -691 -4
-703 -6z"/>
<path d="M715 2081 c-11 -4 -76 -11 -145 -15 -69 -4 -145 -12 -170 -17 -40 -9
-106 -22 -167 -33 -12 -2 -37 -11 -54 -20 -18 -9 -37 -16 -44 -16 -19 0 -55
-45 -55 -68 0 -29 30 -62 56 -62 12 0 27 -7 34 -15 7 -8 30 -18 51 -21 22 -4
39 -10 39 -15 0 -5 21 -9 48 -9 28 0 57 -7 71 -17 21 -14 64 -16 365 -16 290
-1 351 2 404 16 35 9 79 17 97 17 19 0 37 5 40 11 4 6 12 8 19 6 7 -3 28 3 48
13 20 9 48 20 62 24 31 8 57 54 49 87 -8 29 -41 58 -66 59 -11 0 -33 7 -50 15
-18 8 -59 19 -92 24 -33 5 -73 14 -90 19 -16 6 -102 16 -190 22 -88 6 -178 13
-200 15 -22 3 -49 1 -60 -4z"/>
<path d="M80 1648 c1 -154 3 -175 19 -195 11 -13 27 -23 38 -23 10 0 27 -7 37
-15 11 -8 31 -15 44 -15 13 0 33 -5 45 -12 55 -30 507 -69 535 -46 8 7 12 43
12 115 0 111 14 153 51 153 10 0 30 11 44 24 15 14 34 25 43 25 50 2 109 15
127 27 11 8 41 14 68 14 26 0 67 5 90 10 23 6 85 14 137 18 l95 7 3 38 c3 40
-16 59 -41 39 -6 -5 -28 -13 -47 -17 -19 -4 -40 -11 -46 -16 -6 -5 -40 -12
-75 -15 -35 -4 -69 -11 -75 -16 -33 -26 -672 -31 -784 -7 -25 6 -75 15 -111
20 -37 5 -80 16 -95 24 -16 8 -39 15 -51 15 -12 0 -25 5 -28 10 -3 6 -13 10
-21 10 -12 0 -14 -29 -14 -172z"/>
<path d="M1260 1685 c-41 -8 -96 -14 -121 -14 -28 -1 -51 -7 -59 -16 -7 -8
-29 -15 -50 -15 -21 0 -43 -7 -50 -15 -7 -8 -23 -15 -36 -15 -13 0 -35 -12
-49 -27 -14 -15 -33 -28 -42 -28 -24 0 -23 -29 1 -33 10 -2 30 -17 43 -33 17
-19 34 -29 53 -29 16 0 30 -7 34 -15 3 -10 19 -15 44 -15 21 0 47 -7 58 -15
12 -9 43 -14 89 -15 39 0 81 -6 95 -13 40 -21 409 -22 539 -3 58 9 124 16 147
16 24 0 46 5 49 10 4 6 12 10 18 9 19 -4 99 20 140 41 22 11 45 20 52 20 8 0
23 12 33 28 20 27 20 28 0 55 -11 15 -27 27 -35 27 -9 0 -31 11 -49 25 -18 14
-45 25 -59 25 -14 0 -35 4 -45 10 -10 5 -52 14 -92 20 -40 5 -98 14 -128 19
-82 14 -491 11 -580 -4z"/>
<path d="M837 1443 c-3 -6 -1 -283 2 -325 1 -5 10 -8 21 -8 11 0 20 -4 20 -9
0 -19 51 -61 74 -61 13 0 31 -6 38 -14 8 -7 32 -16 54 -19 21 -3 64 -10 94
-15 189 -34 477 -49 600 -30 36 5 103 13 150 18 101 10 190 28 207 42 7 5 17
7 22 4 12 -8 52 13 64 32 4 6 19 12 32 12 15 0 26 7 30 20 3 11 10 20 15 20 5
0 8 73 7 168 -2 143 -4 166 -17 163 -8 -2 -29 -6 -47 -9 -18 -2 -38 -10 -44
-18 -6 -8 -30 -14 -53 -14 -23 0 -47 -5 -52 -10 -6 -6 -55 -15 -110 -20 -54
-6 -116 -14 -136 -19 -54 -13 -423 -13 -493 0 -33 6 -97 13 -142 16 -54 3 -86
9 -94 19 -6 8 -29 14 -54 14 -23 0 -45 3 -48 6 -8 9 -108 43 -124 44 -6 0 -14
-3 -16 -7z"/>
<path d="M593 1303 l-23 -4 0 -623 0 -623 38 -7 c20 -3 335 -6 699 -6 580 0
663 2 677 15 13 14 15 72 13 453 l-2 437 -87 3 c-49 1 -96 -2 -106 -7 -9 -5
-92 -12 -182 -16 -134 -6 -169 -11 -185 -24 -18 -16 -55 -18 -360 -19 -187 0
-358 2 -380 6 -38 7 -40 9 -40 42 0 44 12 48 188 49 108 1 137 4 137 15 0 17
-71 26 -212 26 -105 0 -108 1 -114 24 -16 64 5 83 97 85 52 1 64 8 48 28 -7 8
-34 13 -75 13 -60 0 -64 2 -70 25 -3 14 -3 36 0 49 5 22 13 25 71 31 45 5 65
12 65 21 0 11 -19 14 -87 13 -49 -1 -98 -4 -110 -6z m844 -513 c1 -19 -3 -40
-8 -47 -11 -13 -662 -17 -734 -5 -34 6 -40 11 -43 35 -7 60 -27 57 395 55
l388 -3 2 -35z m-2 -155 l0 -40 -390 0 -390 0 -3 28 c-7 60 -28 57 395 55
l388 -3 0 -40z m-7 -108 c6 -7 10 -28 9 -47 l-2 -35 -390 0 -390 0 -3 33 c-6
62 -17 60 392 61 283 0 377 -3 384 -12z m1 -151 c11 -13 9 -55 -3 -74 -5 -9
-95 -12 -364 -11 -196 1 -368 4 -382 8 -20 6 -25 13 -25 41 0 30 4 36 30 41
56 13 734 8 744 -5z m5 -157 c3 -17 1 -39 -4 -50 -10 -18 -26 -19 -390 -19
l-380 0 -6 25 c-3 14 -3 36 0 50 l6 25 384 0 384 0 6 -31z"/>
<path d="M712 783 c3 -17 28 -18 322 -21 312 -2 357 2 340 29 -3 5 -154 9
-335 9 -309 0 -330 -1 -327 -17z"/>
<path d="M710 635 c0 -13 40 -15 333 -13 213 2 332 7 332 13 0 6 -119 11 -332
13 -293 2 -333 0 -333 -13z"/>
<path d="M717 503 c-4 -3 -7 -12 -7 -20 0 -11 61 -13 328 -13 181 0 332 3 335
7 4 3 2 12 -4 20 -9 10 -75 13 -329 13 -174 0 -320 -3 -323 -7z"/>
<path d="M717 353 c-4 -3 -7 -12 -7 -20 0 -11 61 -13 328 -13 181 0 332 3 335
7 4 3 2 12 -4 20 -9 10 -75 13 -329 13 -174 0 -320 -3 -323 -7z"/>
<path d="M720 200 l0 -30 323 2 322 3 0 25 0 25 -322 3 -323 2 0 -30z"/>
<path d="M720 1220 c0 -28 3 -30 34 -30 26 0 36 5 41 20 9 29 -2 40 -41 40
-31 0 -34 -2 -34 -30z"/>
<path d="M710 1081 c0 -26 13 -33 66 -36 36 -2 44 0 44 14 0 28 -21 41 -67 41
-36 0 -43 -3 -43 -19z"/>
<path d="M712 933 c3 -17 26 -18 310 -18 168 0 309 3 313 7 24 24 -21 28 -316
28 -290 0 -310 -1 -307 -17z"/>
</g>
</svg>
