<?xml version="1.0" standalone="no"?>
<!DOCTYPE svg PUBLIC "-//W3C//DTD SVG 20010904//EN"
 "http://www.w3.org/TR/2001/REC-SVG-20010904/DTD/svg10.dtd">
<svg version="1.0" xmlns="http://www.w3.org/2000/svg"
 width="306.000000pt" height="306.000000pt" viewBox="0 0 306.000000 306.000000"
 style="background-color: #0084ff"
 preserveAspectRatio="xMidYMid meet">
<metadata>
Created by potrace 1.10, written by Peter Selinger 2001-2011
</metadata>
<g transform="translate(0.000000,306.000000) scale(0.100000,-0.100000)"
fill="#ffffff" stroke="none">
<path d="M1676 2262 l-739 -2 -34 -26 c-19 -14 -53 -44 -76 -65 -23 -21 -45
-39 -49 -39 -4 0 -18 -10 -31 -22 -27 -25 -69 -60 -137 -114 -25 -20 -63 -51
-85 -69 -22 -19 -62 -51 -90 -73 -27 -22 -103 -82 -167 -134 -64 -52 -132
-105 -152 -119 -20 -13 -36 -28 -36 -34 0 -7 365 -9 1082 -7 l1083 3 55 54
c30 30 127 125 215 212 203 199 359 348 413 392 23 19 39 37 36 40 -6 6 -268
7 -1288 3z m722 -71 c9 -5 45 -18 79 -28 35 -10 63 -22 63 -26 0 -20 -47 -46
-85 -47 -22 0 -53 -7 -69 -15 -15 -8 -38 -15 -50 -15 -11 0 -34 -9 -51 -20
-16 -11 -38 -20 -47 -20 -25 0 -34 21 -15 35 10 7 17 18 17 25 0 9 -57 11
-259 9 -279 -4 -301 -1 -257 40 24 23 26 23 313 22 l288 -1 24 25 c26 28 25
28 49 16z m262 -85 c0 -8 -7 -16 -15 -20 -8 -3 -15 -11 -15 -18 0 -20 -48 -68
-68 -68 -18 -1 -72 -65 -72 -87 0 -7 -7 -13 -15 -13 -9 0 -19 -9 -23 -20 -4
-10 -30 -36 -58 -57 -27 -21 -58 -45 -67 -53 -90 -80 -97 -85 -140 -113 -31
-20 -67 -9 -67 21 0 19 44 44 64 36 8 -3 27 9 44 25 17 17 35 31 41 31 6 0 17
12 23 28 7 15 19 35 27 45 11 13 12 20 3 29 -7 7 -12 19 -12 28 0 22 53 60 87
62 34 1 125 41 143 63 7 8 21 15 31 15 11 0 19 7 19 17 0 16 46 62 63 63 4 0
7 -6 7 -14z m-1380 -26 c0 -6 -7 -25 -16 -42 l-16 -31 34 6 c40 7 486 12 493
6 2 -3 2 -14 -1 -26 -11 -41 -43 -45 -332 -42 l-272 4 -26 -28 c-29 -32 -28
-32 -79 -7 -22 11 -47 19 -55 20 -24 0 -74 45 -66 58 4 7 29 12 56 12 27 0 52
5 55 10 3 6 21 10 38 10 18 0 45 7 60 15 15 8 43 17 63 21 19 3 37 10 40 15 7
12 24 11 24 -1z m-360 -18 c0 -5 -7 -17 -15 -28 -20 -27 -18 -68 5 -114 30
-60 43 -57 -117 -30 -40 7 -73 17 -73 22 0 11 73 80 117 111 18 12 33 28 33
35 0 6 11 12 25 12 14 0 25 -4 25 -8z m1212 -145 c21 -7 41 -16 44 -20 4 -4
17 -7 28 -7 38 0 51 -15 38 -44 -10 -23 -18 -26 -60 -26 -27 0 -57 -6 -68 -15
-10 -8 -32 -15 -49 -15 -16 0 -43 -9 -60 -20 -16 -11 -38 -20 -48 -20 -26 0
-33 28 -11 45 11 8 15 15 9 16 -5 1 -126 1 -267 -1 -237 -2 -258 -1 -264 15
-5 12 1 24 17 36 22 18 44 19 308 18 l283 -1 25 26 c28 30 26 30 75 13z
m-1302 -141 c0 -13 -5 -26 -10 -28 -22 -7 447 4 475 11 17 4 36 6 43 4 21 -8
14 -51 -12 -69 -21 -13 -63 -15 -303 -14 -266 2 -313 -1 -313 -21 0 -5 -11
-14 -23 -20 -19 -9 -32 -7 -63 10 -21 12 -48 21 -59 21 -26 0 -45 18 -45 42 0
20 5 21 150 45 19 3 41 10 48 15 13 11 64 25 95 27 12 1 17 -6 17 -23z m987
-62 c46 -5 121 -45 123 -65 1 -20 -406 -26 -468 -7 -27 8 -36 7 -46 -7 -11
-15 -13 -15 -30 4 -22 24 -14 40 9 21 21 -17 32 -4 17 20 -27 44 -22 45 165
42 98 -1 201 -5 230 -8z m283 -65 c0 -10 -34 -12 -43 -2 -4 3 -2 12 4 20 9 10
15 10 25 2 8 -6 14 -15 14 -20z"/>
<path d="M2949 2188 c-21 -32 -439 -449 -593 -593 l-75 -70 -3 -343 c-2 -268
0 -342 10 -342 6 0 12 4 12 8 0 9 81 101 224 254 45 48 106 115 136 149 30 34
78 86 105 114 28 28 89 93 137 143 l86 92 4 310 c3 331 1 342 -43 278z m-69
-385 c0 -70 -5 -115 -15 -140 -14 -34 -72 -107 -140 -178 -16 -18 -75 -81
-130 -141 -55 -60 -120 -128 -144 -151 -43 -43 -78 -55 -86 -30 -9 27 -13 267
-4 273 5 3 9 13 9 22 0 26 96 147 143 181 53 38 43 29 171 160 60 62 123 118
140 125 47 21 56 2 56 -121z"/>
<path d="M27 1510 c-1 -3 -1 -160 1 -350 l2 -345 1102 2 1102 3 -3 342 c-1
189 -4 344 -5 345 -4 5 -2198 8 -2199 3z m2103 -105 c25 -20 25 -20 23 -190
-1 -93 -4 -187 -8 -207 -10 -73 59 -68 -1005 -68 -534 0 -961 4 -969 9 -21 13
-30 89 -30 251 -1 178 4 213 32 226 14 5 388 7 977 4 937 -5 956 -5 980 -25z"/>
</g>
</svg>
