<?xml version="1.0" standalone="no"?>
<!DOCTYPE svg PUBLIC "-//W3C//DTD SVG 20010904//EN"
 "http://www.w3.org/TR/2001/REC-SVG-20010904/DTD/svg10.dtd">
<svg version="1.0" xmlns="http://www.w3.org/2000/svg"
 width="306.000000pt" height="306.000000pt" viewBox="0 0 306.000000 306.000000"
 style="background-color: #ffffff"
 preserveAspectRatio="xMidYMid meet">
<metadata>
Created by potrace 1.10, written by Peter Selinger 2001-2011
</metadata>
<g transform="translate(0.000000,306.000000) scale(0.100000,-0.100000)"
fill="#0084ff" stroke="none">
<path d="M937 2974 c-3 -3 -4 -11 -1 -18 3 -7 -7 -18 -21 -26 -15 -8 -25 -22
-25 -36 0 -12 -7 -24 -15 -28 -8 -3 -15 -14 -15 -25 0 -11 -9 -25 -20 -31 -11
-6 -20 -19 -20 -29 0 -10 -9 -26 -19 -35 -11 -10 -17 -24 -14 -32 3 -8 -5 -18
-21 -25 -17 -8 -26 -20 -26 -35 0 -12 -7 -24 -15 -28 -8 -3 -15 -14 -15 -25 0
-11 -9 -25 -20 -31 -11 -6 -20 -16 -19 -23 3 -26 -2 -36 -21 -42 -15 -5 -19
-12 -15 -25 4 -13 -1 -22 -15 -30 -11 -6 -20 -19 -20 -30 0 -11 -9 -24 -20
-30 -11 -6 -20 -19 -20 -30 0 -10 -7 -23 -15 -28 -9 -4 -17 -19 -20 -32 -3
-13 -11 -28 -20 -32 -8 -5 -15 -18 -15 -28 0 -11 -9 -24 -20 -30 -11 -6 -20
-19 -20 -30 0 -11 -9 -24 -20 -30 -11 -6 -20 -19 -20 -29 0 -10 -7 -24 -15
-31 -8 -7 -15 -21 -15 -31 0 -10 -9 -23 -20 -29 -11 -6 -20 -19 -20 -30 0 -11
-9 -24 -20 -30 -11 -6 -20 -19 -20 -30 0 -11 -9 -24 -21 -30 -12 -7 -18 -18
-15 -26 3 -8 -3 -22 -14 -31 -11 -10 -20 -25 -20 -35 0 -9 -9 -22 -20 -28 -11
-6 -20 -19 -20 -29 0 -10 -9 -26 -19 -35 -11 -10 -17 -24 -14 -32 3 -8 -5 -18
-22 -24 -20 -8 -25 -15 -20 -29 4 -14 0 -23 -15 -31 -12 -6 -20 -21 -20 -35
l0 -25 1088 2 1087 3 3 23 c2 13 10 26 18 29 8 3 14 16 14 29 0 14 7 27 15 30
8 4 15 17 15 30 0 13 9 28 20 34 11 6 20 16 19 23 -3 26 2 37 16 37 9 0 15 9
15 25 0 14 7 28 15 31 8 4 15 17 15 30 0 14 7 27 15 30 8 4 15 17 15 30 0 14
7 27 15 30 8 4 15 16 15 29 0 12 7 28 15 35 8 7 15 20 15 30 0 10 7 23 15 30
8 7 15 20 15 30 0 10 7 23 15 30 8 7 15 20 15 30 0 10 7 23 15 30 8 7 15 20
15 30 0 10 7 23 15 30 8 7 15 21 15 32 0 10 7 21 15 24 8 4 15 17 15 30 0 14
7 27 15 30 8 4 15 17 15 30 0 14 7 27 15 30 8 4 15 17 15 30 0 14 7 27 15 30
8 4 15 17 15 30 0 14 7 27 15 30 8 4 15 16 15 28 0 12 9 29 20 39 11 9 17 23
14 30 -3 8 2 17 10 20 9 4 16 18 16 32 0 14 7 28 15 31 8 4 15 17 15 30 0 14
7 27 15 30 8 4 15 17 15 30 0 12 6 27 14 31 7 4 16 22 20 38 4 17 10 40 13 53
l5 22 -1004 0 c-553 0 -1007 -3 -1011 -6z m1448 -134 c-5 -15 0 -21 22 -26 49
-10 53 -13 53 -33 0 -14 9 -23 25 -27 13 -3 30 -13 37 -21 10 -13 8 -19 -15
-39 -16 -13 -24 -29 -21 -38 4 -11 -4 -16 -33 -21 -58 -9 -83 -22 -77 -39 6
-15 -5 -20 -69 -31 -28 -4 -37 -10 -35 -23 2 -12 -5 -18 -24 -20 -22 -3 -28 1
-28 17 0 11 5 23 10 26 6 3 10 19 10 36 l0 29 -249 0 c-276 0 -287 2 -258 57
9 15 18 36 21 45 5 16 30 18 293 20 l288 3 3 25 c2 14 10 29 18 33 8 4 14 17
14 27 0 11 5 20 11 20 6 0 8 -8 4 -20z m-1129 -325 l-6 -55 252 -2 253 -3 3
-27 c3 -22 -2 -30 -23 -38 -15 -6 -140 -10 -296 -10 -256 0 -269 -1 -269 -19
0 -10 -6 -24 -14 -31 -8 -6 -16 -21 -18 -33 -4 -32 -62 -32 -66 0 -2 16 -13
25 -35 31 -20 5 -33 16 -36 28 -1 10 -10 27 -18 36 -19 22 -13 52 12 56 54 8
65 13 65 32 0 19 9 24 73 35 27 4 37 11 37 25 0 22 13 28 59 29 l34 1 -7 -55z
m882 -246 c19 -7 32 -18 34 -32 2 -13 13 -23 28 -27 27 -6 40 -44 21 -63 -6
-6 -11 -19 -11 -28 0 -19 -20 -29 -59 -29 -31 0 -52 -16 -44 -36 3 -9 -8 -15
-34 -19 -58 -9 -83 -22 -77 -39 6 -16 -29 -32 -46 -21 -13 8 -13 41 2 64 6 10
8 26 5 35 -6 14 -34 16 -255 16 -212 0 -251 2 -262 15 -11 13 -9 20 9 38 11
13 21 31 21 40 0 14 29 16 285 19 237 2 287 5 295 18 5 8 6 18 3 24 -7 10 24
36 42 36 7 0 26 -5 43 -11z m-1310 -268 c2 -13 -1 -28 -7 -34 -6 -6 -11 -19
-11 -29 0 -16 18 -18 258 -20 l257 -3 3 -24 c7 -48 -10 -51 -311 -51 -242 0
-278 -2 -273 -15 3 -8 -4 -21 -16 -29 -11 -8 -21 -25 -22 -38 -1 -20 -6 -23
-41 -23 -29 0 -40 4 -40 15 -1 25 -13 37 -44 43 -25 5 -29 11 -35 51 -9 55 -3
66 30 66 35 0 64 18 58 35 -4 10 5 16 33 21 52 9 73 22 67 38 -6 16 17 25 61
23 23 -2 31 -7 33 -26z"/>
<path d="M2955 2860 c-3 -5 -4 -14 0 -19 3 -5 -2 -16 -10 -24 -8 -9 -15 -25
-15 -37 0 -11 -7 -23 -15 -26 -8 -4 -15 -17 -15 -30 0 -14 -7 -27 -15 -30 -8
-4 -15 -17 -15 -30 0 -14 -7 -27 -15 -30 -8 -4 -15 -17 -15 -30 0 -14 -7 -27
-15 -30 -8 -4 -15 -17 -15 -30 0 -14 -7 -27 -15 -30 -8 -4 -15 -17 -15 -30 0
-13 -9 -28 -20 -34 -11 -6 -20 -20 -20 -31 0 -11 -7 -22 -15 -25 -8 -4 -15
-17 -15 -30 0 -14 -7 -27 -15 -30 -8 -4 -15 -17 -15 -30 0 -14 -7 -27 -15 -30
-8 -4 -15 -16 -15 -29 0 -12 -7 -28 -15 -35 -8 -7 -15 -21 -15 -32 0 -10 -7
-21 -15 -24 -8 -4 -15 -16 -15 -28 0 -12 -9 -29 -20 -39 -11 -9 -17 -23 -14
-32 4 -8 -1 -17 -10 -21 -9 -3 -16 -17 -16 -30 0 -13 -9 -28 -21 -34 -13 -7
-18 -17 -15 -27 4 -9 -2 -24 -13 -35 -11 -10 -18 -25 -15 -32 3 -8 -3 -19 -15
-26 -12 -6 -21 -19 -21 -30 0 -11 -9 -24 -21 -30 -11 -7 -18 -18 -15 -25 3 -8
-1 -21 -9 -29 -8 -8 -15 -24 -15 -36 0 -11 -7 -23 -15 -26 -8 -4 -15 -17 -15
-30 0 -14 -7 -27 -15 -30 -8 -4 -15 -17 -15 -30 0 -12 -8 -27 -17 -33 -17 -9
-18 -54 -21 -692 -3 -695 -1 -732 33 -686 7 11 11 25 9 31 -3 7 2 19 11 26 8
7 15 20 15 30 0 10 7 23 15 30 9 7 14 19 11 26 -3 8 2 20 10 29 8 8 17 25 19
37 3 12 12 26 20 31 10 5 14 16 10 28 -4 12 -1 21 9 25 9 3 16 16 16 29 0 12
7 28 15 35 8 7 15 20 15 30 0 10 7 23 15 30 8 7 15 20 15 30 0 10 7 23 15 30
8 7 15 23 15 35 0 13 5 25 10 27 6 2 12 14 15 28 3 13 11 28 20 32 8 5 15 18
15 29 0 19 4 28 28 76 7 13 12 31 12 41 0 11 9 27 20 37 11 10 17 22 13 28 -3
5 2 16 11 22 9 7 19 22 21 34 2 12 7 26 10 31 3 5 8 19 10 30 2 11 11 27 19
35 8 9 13 22 10 30 -3 7 4 18 16 25 15 8 19 17 15 31 -4 12 -1 21 9 25 9 3 16
16 16 29 0 12 7 28 15 35 8 7 15 20 15 30 0 10 7 23 15 30 8 7 15 20 15 30 0
10 7 23 15 30 8 7 15 23 15 36 0 13 5 24 10 24 6 0 10 11 10 23 0 13 9 32 20
42 11 10 17 22 14 27 -4 5 3 18 14 29 21 19 21 26 22 639 0 538 -2 620 -14
620 -8 0 -18 -4 -21 -10z"/>
<path d="M37 1483 c-4 -3 -7 -314 -7 -689 l0 -684 23 -5 c12 -3 508 -4 1102
-3 l1080 3 3 693 2 692 -1098 0 c-604 0 -1102 -3 -1105 -7z"/>
</g>
</svg>
